<?xml version="1.0" encoding="utf-8"?>
<!-- Generator: Adobe Illustrator 24.0.1, SVG Export Plug-In . SVG Version: 6.00 Build 0)  -->
<svg version="1.1" id="Ebene_1" xmlns="http://www.w3.org/2000/svg" xmlns:xlink="http://www.w3.org/1999/xlink" x="0px" y="0px"
	 viewBox="0 0 540 178" style="enable-background:new 0 0 540 178;" xml:space="preserve">
<style type="text/css">
	.st0{fill:#575756;}
	.st1{fill:#C5D038;}
	.st2{fill:#FFD100;}
	.st3{fill:none;stroke:#FFDE00;stroke-width:5.397969e-02;stroke-miterlimit:10;}
</style>
<g>
	<g>
		<path class="st0" d="M187.2,154.9l-0.3,1.1h-2.9l-4.5,16.5l-1.6,0.5l-0.1-0.2l4.2-16.8h-2.4l0.3-1.1h2.4c0.9-3,1.6-5.2,4-7.4
			c0.7-0.6,1.9-1.3,2.9-1.3c0.5,0,1.1,0.2,1.1,0.9c0,0.4-0.3,1.3-0.8,1.3c-0.5,0-1.1-0.5-1.7-0.5c-1.6,0-2.1,1.8-2.5,3.4l-0.9,3.7
			H187.2z"/>
		<path class="st0" d="M200.7,163.6c-1.1,1.2-2.8,3.3-4.6,3.3c-0.6,0-1-0.4-1-0.9c0-0.4,0.2-1.1,0.5-2l1.6-4.8h-0.1
			c-1.3,1.7-5.7,7.7-8.4,7.7c-0.6,0-1.1-0.5-1.1-1.1c0-0.2,0.1-0.6,0.3-1.2l2.3-7c0,0,0.1-0.3,0.1-0.6c0-0.2-0.1-0.4-0.4-0.4
			c-0.8,0-1.7,1.2-2.2,1.8l-0.4-0.5l0.9-0.9c1.1-1.1,2.5-2.5,3.8-2.5c0.5,0,0.9,0.3,0.9,0.9c0,0.4-0.1,0.8-0.4,1.4l-2.4,7.3
			c0,0.1-0.1,0.2-0.1,0.4c0,0.2,0.2,0.3,0.5,0.3c1.8,0,6.9-6.9,7.9-9.3c0.2-0.5,0.4-0.8,0.9-0.8c0.5,0,0.9,0.5,1.2,0.8l-2.9,8.8
			c-0.1,0.1-0.1,0.3-0.1,0.4c0,0.2,0.1,0.4,0.4,0.4c0.7,0,1.8-1.2,2.3-1.7L200.7,163.6z M193.4,149.1c0.8,0,1.3,0.6,1.3,1.3
			c0,0.7-0.6,1.3-1.3,1.3c-0.7,0-1.3-0.6-1.3-1.3C192.1,149.6,192.7,149.1,193.4,149.1z M198.8,149.1c0.8,0,1.3,0.6,1.3,1.3
			c0,0.7-0.6,1.3-1.3,1.3c-0.7,0-1.3-0.6-1.3-1.3C197.5,149.6,198.1,149.1,198.8,149.1z"/>
		<path class="st0" d="M202.4,158.1c0.7-1,2.8-3.6,4.1-3.6c0.7,0,1.1,0.3,1.1,1c0,0.3-0.1,0.8-0.3,1.4l-1,3.7h0.1
			c0.7-1.4,3.3-6.1,5-6.1c0.6,0,0.8,0.3,0.8,0.9c0,0.6-0.3,2-1.1,2c-0.3,0-0.7-0.1-1-0.1c-1.9,0-3.8,5.2-4.7,8l-0.5,1.7
			c-0.1,0.2-0.5,0.2-1,0.2c-0.4,0-0.9-0.2-0.9-0.5c0-0.1,0-0.2,0.1-0.2l2.1-7.5c0.1-0.4,0.3-1.2,0.3-1.6c0-0.3-0.2-0.7-0.5-0.7
			c-0.7,0-1.8,1.3-2.3,1.8L202.4,158.1z"/>
		<path class="st0" d="M223.3,148c1.2,0.1,2.5,0.1,3.7,0.1c1.1,0,2.2-0.1,3.3-0.1l-0.1,0.7c-0.9,0-2.2,0.1-2.4,1.6l-1.2,6.9h0.3
			c1.2,0,1.9-1,2.6-1.8c0.8-0.7,5.2-5.5,5.2-6.2c0-0.6-0.5-0.6-1-0.6h-0.4l0.1-0.7c0.9,0.1,1.8,0.1,2.7,0.1c1,0,2-0.1,2.9-0.1
			l-0.1,0.7c-0.5,0-0.9,0-1.3,0.2c-0.8,0.4-1.9,1.4-2.5,2l-5.8,6l5.4,7.4c0.6,0.8,1.3,1.9,2.5,1.9h0.3l-0.1,0.7
			c-0.7,0-1.5-0.1-2.2-0.1c-0.4,0-0.8,0.1-1.2,0.1c-0.4,0-0.9-0.6-1.8-1.8c-1.4-1.9-3-4.2-4.7-6.5c-0.2-0.3-0.4-0.6-0.8-0.6h-0.3
			l-1,5.3c-0.1,0.7-0.2,1.5-0.2,2c0,0.4,0.1,0.9,1.8,0.9h0.4l-0.1,0.7c-1.1,0-2.1-0.1-3.2-0.1c-1.2,0-2.5,0-3.7,0.1l0.1-0.7h0.1
			c0.7,0,1.2,0.1,1.8-0.5c0.4-0.4,0.5-1.6,0.6-2.2l2.4-12.9c0.1-0.4,0.1-0.7,0.1-0.9c0-1-0.9-1-1.8-0.9h-0.5L223.3,148z"/>
		<path class="st0" d="M252.7,163.6c-1.1,1.2-2.8,3.3-4.6,3.3c-0.6,0-1-0.4-1-0.9c0-0.4,0.2-1.1,0.5-2l1.6-4.8h-0.1
			c-1.3,1.7-5.7,7.7-8.4,7.7c-0.6,0-1.1-0.5-1.1-1.1c0-0.2,0.1-0.6,0.3-1.2l2.3-7c0,0,0.1-0.3,0.1-0.6c0-0.2-0.1-0.4-0.4-0.4
			c-0.8,0-1.7,1.2-2.2,1.8l-0.4-0.5l0.9-0.9c1.1-1.1,2.5-2.5,3.8-2.5c0.5,0,0.9,0.3,0.9,0.9c0,0.4-0.1,0.8-0.4,1.4l-2.4,7.3
			c0,0.1-0.1,0.2-0.1,0.4c0,0.2,0.2,0.3,0.5,0.3c1.8,0,6.9-6.9,7.9-9.3c0.2-0.5,0.4-0.8,0.9-0.8c0.5,0,0.9,0.5,1.2,0.8l-2.9,8.8
			c-0.1,0.1-0.1,0.3-0.1,0.4c0,0.2,0.1,0.4,0.4,0.4c0.7,0,1.8-1.2,2.3-1.7L252.7,163.6z"/>
		<path class="st0" d="M257.9,160.6L257.9,160.6c1.2-1.8,4.9-6,7.4-6c1.4,0,1.9,1,1.9,2.3c0,2.7-3.3,10-6.1,10
			c-0.5,0-0.6-0.3-0.6-0.6c0-0.2,0.1-0.4,0.1-0.5l0.6-1.3h1.9c0.8-1.7,2-4.8,2-6.7c0-0.9-0.3-1.6-1.1-1.6c-1.9,0-5,4.1-5.8,5.6
			c-0.9,1.7-1.1,2.6-1.6,4.6c-0.1,0.2-0.2,0.4-1.2,0.4c-0.4,0-0.9-0.1-0.9-0.5c0-0.3,0.1-0.6,0.2-0.8l4.3-17.5l-1.3-0.8l0.1-0.4
			c0.4-0.1,1.1-0.1,1.8-0.2c0.6-0.1,1.3-0.3,1.9-0.5l0.3,0.1L257.9,160.6z"/>
		<path class="st0" d="M268.5,170.1c1.6-0.2,3.6-0.7,3.6-2.7c0-0.2,0-0.4-0.2-0.5c-0.6-0.3-1-0.1-1.5-0.7c-0.2-0.3-0.3-0.6-0.3-0.9
			c0-1.3,1-1.6,1.8-1.6c1.4,0,2.1,1.3,2.1,2.6c0,2.7-2.7,4.5-5.2,4.4L268.5,170.1z"/>
		<path class="st0" d="M284.7,161.4c0.1,1.1,0,1.9,0.5,3c0.5,1.3,1.9,2.1,3.3,2.1c2,0,3.7-1.2,3.7-3.3c0-3.9-6-6.1-6-10.5
			c0-2.9,2.1-5,5-5c1.2,0,1.9,0.1,2.9,0.5c0.2,0.1,0.5,0.2,0.8,0.2c0.3,0,0.4-0.1,0.5-0.2h0.5l-0.8,4.8h-0.6c0-0.4,0.1-0.8,0.1-1.1
			c0-2-1.3-3.2-3.3-3.2c-1.8,0-2.9,1-2.9,2.8c0,3.7,6.3,6.1,6.3,10.6c0,3.1-2.6,5.3-5.8,5.3c-1.7,0-2.9-0.5-3.9-1l-0.9,0.8h-0.6
			l0.7-5.7H284.7z"/>
		<path class="st0" d="M307.5,163.4c-1.8,2-3.9,3.9-6.6,3.9c-2.2,0-3.3-1.6-3.3-3.7c0-3.7,2.8-6.9,6-8.2c0.8-0.3,2.2-0.9,3-0.9
			c0.6,0,1.3,0.4,1.3,1.1c0,0.8-0.6,1.4-1.2,1.4c-0.9,0-1.4-0.9-2.2-0.9c-2.7,0-4.7,4.9-4.7,7.2c0,1.5,1,2.5,2.6,2.5
			c1.8,0,3.6-1.6,4.8-2.9L307.5,163.4z"/>
		<path class="st0" d="M312.1,160.6L312.1,160.6c1.2-1.8,4.9-6,7.4-6c1.4,0,1.9,1,1.9,2.3c0,2.7-3.3,10-6.1,10
			c-0.5,0-0.6-0.3-0.6-0.6c0-0.2,0.1-0.4,0.1-0.5l0.6-1.3h1.9c0.8-1.7,2-4.8,2-6.7c0-0.9-0.3-1.6-1.1-1.6c-1.9,0-5,4.1-5.8,5.6
			c-0.9,1.7-1.1,2.6-1.6,4.6c-0.1,0.2-0.2,0.4-1.2,0.4c-0.4,0-0.9-0.1-0.9-0.5c0-0.3,0.1-0.6,0.2-0.8l4.3-17.5l-1.3-0.8l0.1-0.4
			c0.4-0.1,1.1-0.1,1.8-0.2c0.6-0.1,1.3-0.3,1.9-0.5l0.3,0.1L312.1,160.6z"/>
		<path class="st0" d="M323.7,157.9c0.9-1.1,3.1-3.4,4.5-3.4c0.5,0,1,0.2,1,0.8c0,0.2,0,0.4-0.1,0.6l-2.5,7.8
			c-0.1,0.3-0.1,0.5-0.1,0.8c0,0.4,0.1,0.6,0.6,0.6c1.6,0,5.5-4.3,6-5.1c0.2-0.6,1.1-4,1.8-4.8c0.2-0.3,1-0.6,1.3-0.6
			c0.4,0.1,0.6,0.4,0.9,0.7c0,0.3-0.2,1-0.5,1.7c-0.3,0.7-1.1,1.8-1.3,2.1l-1.1,4.6c-0.1,0.2-0.1,0.5-0.1,0.8c0,0.6,0.3,1.2,1.1,1.2
			c2,0,3.8-2.3,4.8-3.9c0.8-1.2,1.4-2.5,1.4-3.9c0-0.7-0.2-1.3-0.2-2c0-0.6,0.6-1.3,1.2-1.3c0.9,0,1.1,0.8,1.1,1.5
			c0,2.5-2.8,6.3-4.3,8.1c-1.2,1.4-3.5,3.1-5.5,3.1c-1.1,0-1.8-0.8-1.8-1.8c0-1.3,0.5-2.6,0.8-3.9h-0.1c-1.5,1.4-5.2,5.6-7.2,5.6
			c-1,0-1.1-1-1.1-1.4c0-0.5,0.1-1,0.2-1.6l1.9-6.5c0-0.1,0.1-0.3,0.1-0.4c0-0.2-0.1-0.4-0.4-0.4c-0.5,0-1.7,1.2-2.1,1.5
			L323.7,157.9z"/>
		<path class="st0" d="M354.1,163.8c-1.8,2-3.8,3.5-6.1,3.5c-2.5,0-3.3-1.8-3.3-3.6c0-4.3,3.9-9.1,7.8-9.1c1.2,0,2.6,0.4,2.6,1.9
			c0,3.7-5.2,4.9-8,5.2c-0.2,0.7-0.2,1.4-0.2,2.1c0,1.3,0.9,2.1,2.2,2.1c1.6,0,3.2-1,4.7-2.5L354.1,163.8z M352.9,156.5
			c0-0.7-0.4-1.2-1.1-1.2c-2.1,0-4.2,3.8-4.6,5.6C349.6,160.8,352.9,159.5,352.9,156.5z"/>
		<path class="st0" d="M357,158c0.8-1.2,2.7-3.5,4.3-3.5c0.6,0,0.8,0.3,0.8,0.7c0,0.4-0.2,1.1-0.4,1.5l-2.2,6.9
			c-0.2,0.5-0.3,0.9-0.3,1.1c0,0.3,0.1,0.4,0.4,0.4c0.4,0,1.8-1.5,2.1-1.8l0.4,0.4c-0.8,1.1-2.8,3.6-4.3,3.6c-0.8,0-1-0.5-1-1.1
			c0-0.3,0.1-0.8,0.3-1.3l2.3-6.9c0.1-0.4,0.2-0.8,0.2-1c0-0.2-0.1-0.3-0.3-0.3c-0.6,0-1.6,1.3-1.9,1.7L357,158z M363.1,149.5
			c0,0.6-0.6,1.2-1.2,1.2s-1.2-0.6-1.2-1.2c0-0.6,0.6-1.3,1.2-1.3C362.5,148.2,363.1,148.9,363.1,149.5z"/>
		<path class="st0" d="M364,157.9c1-1.3,2.9-3.4,4.7-3.4c0.6,0,0.9,0.4,0.9,0.9c0,0.5-0.2,1-0.3,1.3l-1.4,4.1h0.1
			c1.3-1.9,5.3-6.3,7.9-6.3c0.8,0,1.1,0.5,1.1,1.1c0,0.4-0.1,0.9-0.3,1.3l-2.2,5.9c-0.2,0.6-0.4,1.1-0.4,1.4c0,0.3,0.1,0.6,0.5,0.6
			c0.7,0,1.9-1.3,2.3-1.9l0.5,0.4l-1,1.2c-0.9,1.2-2.3,2.3-3.8,2.3c-0.7,0-1-0.4-1-0.9c0-0.4,0.1-0.9,0.4-1.7l2.1-5.7
			c0.1-0.2,0.4-1,0.4-1.3c0-0.4-0.3-0.5-0.6-0.5c-1.5,0-3.1,1.8-3.9,2.8c-1.5,1.6-2.6,3.5-3.4,5.5l-0.5,1.5c-0.1,0.2-0.7,0.3-1,0.3
			c-0.3,0-0.7-0.2-0.9-0.4l2.6-8c0.2-0.5,0.3-1,0.3-1.3c0-0.3-0.1-0.5-0.4-0.5c-0.6,0-1.1,0.4-1.6,0.9l-0.7,0.8L364,157.9z"/>
		<path class="st0" d="M378,170.1c1.6-0.2,3.6-0.7,3.6-2.7c0-0.2,0-0.4-0.2-0.5c-0.6-0.3-1-0.1-1.5-0.7c-0.2-0.3-0.3-0.6-0.3-0.9
			c0-1.3,1-1.6,1.8-1.6c1.4,0,2.1,1.3,2.1,2.6c0,2.7-2.7,4.5-5.2,4.4L378,170.1z"/>
		<path class="st0" d="M399.2,156.5h10.1l1.1-5.9c0.4-1.9-0.4-1.9-1.3-1.9h-0.9l0.1-0.7c1.3,0.1,2.5,0.1,3.8,0.1
			c1.1,0,2.2-0.1,3.3-0.1l-0.1,0.7h-0.5c-1.7,0-1.8,0.6-2.2,2.7l-2.2,12c-0.5,2.4-0.3,2.8,1,2.7h1l-0.1,0.7c-1.2,0-2.4-0.1-3.6-0.1
			c-1.2,0-2.3,0-3.5,0.1l0.1-0.7h0.5c1.6,0,1.7-0.5,2.1-2.3l1.1-6.2h-10l-1.1,5.8c-0.5,2.4-0.3,2.8,1,2.7h1l-0.1,0.7
			c-1.2,0-2.4-0.1-3.6-0.1c-1.2,0-2.3,0-3.5,0.1l0.1-0.7h0.5c1.6,0,1.7-0.5,2.1-2.3l2.4-13.2c0.4-1.9-0.4-1.9-1.3-1.9h-0.9l0.1-0.7
			c1.3,0.1,2.5,0.1,3.8,0.1c1.1,0,2.2-0.1,3.3-0.1l-0.1,0.7h-0.5c-1.7,0-1.8,0.6-2.2,2.7L399.2,156.5z"/>
		<path class="st0" d="M428.7,163.6c-1.1,1.2-2.8,3.3-4.6,3.3c-0.6,0-1-0.4-1-0.9c0-0.4,0.2-1.1,0.5-2l1.6-4.8h-0.1
			c-1.3,1.7-5.7,7.7-8.4,7.7c-0.6,0-1.1-0.5-1.1-1.1c0-0.2,0.1-0.6,0.3-1.2l2.3-7c0,0,0.1-0.3,0.1-0.6c0-0.2-0.1-0.4-0.4-0.4
			c-0.8,0-1.7,1.2-2.2,1.8l-0.4-0.5l0.9-0.9c1.1-1.1,2.5-2.5,3.8-2.5c0.5,0,0.9,0.3,0.9,0.9c0,0.4-0.1,0.8-0.4,1.4l-2.4,7.3
			c0,0.1-0.1,0.2-0.1,0.4c0,0.2,0.2,0.3,0.5,0.3c1.8,0,6.9-6.9,7.9-9.3c0.2-0.5,0.4-0.8,0.9-0.8c0.5,0,0.9,0.5,1.2,0.8l-2.9,8.8
			c-0.1,0.1-0.1,0.3-0.1,0.4c0,0.2,0.1,0.4,0.4,0.4c0.7,0,1.8-1.2,2.3-1.7L428.7,163.6z"/>
		<path class="st0" d="M433.8,160.6L433.8,160.6c1.2-1.8,4.9-6,7.4-6c1.4,0,1.9,1,1.9,2.3c0,2.7-3.3,10-6.1,10
			c-0.5,0-0.6-0.3-0.6-0.6c0-0.2,0.1-0.4,0.1-0.5l0.6-1.3h1.9c0.8-1.7,2-4.8,2-6.7c0-0.9-0.3-1.6-1.1-1.6c-1.9,0-5,4.1-5.8,5.6
			c-0.9,1.7-1.1,2.6-1.6,4.6c-0.1,0.2-0.2,0.4-1.2,0.4c-0.4,0-0.9-0.1-0.9-0.5c0-0.3,0.1-0.6,0.2-0.8l4.3-17.5l-1.3-0.8l0.1-0.4
			c0.4-0.1,1.1-0.1,1.8-0.2c0.6-0.1,1.3-0.3,1.9-0.5l0.3,0.1L433.8,160.6z"/>
		<path class="st0" d="M445.5,157.9c1-1.3,2.9-3.4,4.7-3.4c0.6,0,0.9,0.4,0.9,0.9c0,0.5-0.2,1-0.3,1.3l-1.4,4.1h0.1
			c1.3-1.9,5.3-6.3,7.9-6.3c0.8,0,1.1,0.5,1.1,1.1c0,0.4-0.1,0.9-0.3,1.3l-2.2,5.9c-0.2,0.6-0.4,1.1-0.4,1.4c0,0.3,0.1,0.6,0.5,0.6
			c0.7,0,1.9-1.3,2.3-1.9l0.5,0.4l-1,1.2c-0.9,1.2-2.3,2.3-3.8,2.3c-0.7,0-1-0.4-1-0.9c0-0.4,0.1-0.9,0.4-1.7l2.1-5.7
			c0.1-0.2,0.4-1,0.4-1.3c0-0.4-0.3-0.5-0.6-0.5c-1.5,0-3.1,1.8-3.9,2.8c-1.5,1.6-2.6,3.5-3.4,5.5l-0.5,1.5c-0.1,0.2-0.7,0.3-1,0.3
			c-0.3,0-0.7-0.2-0.9-0.4l2.6-8c0.2-0.5,0.3-1,0.3-1.3c0-0.3-0.1-0.5-0.4-0.5c-0.6,0-1.1,0.4-1.6,0.9l-0.7,0.8L445.5,157.9z"/>
	</g>
	<g>
		<path class="st0" d="M475.9,155.4c0-0.2,0-0.5,0-0.8c0-1.8,0.5-3.2,1.4-4.2c0.9-1,1.9-1.5,2.9-1.5c0.9,0,1.6,0.3,2.1,0.8
			s0.7,1.1,0.7,1.7c0,1.1-0.6,2.1-1.7,3c-0.6,0.5-1.6,1.1-2.9,1.8c0.2,0.9,0.5,2.1,1,3.5c0.5,1.4,0.9,2.4,1.3,2.9
			c0.8-1,1.4-1.7,1.6-2.1c0.4-0.6,0.5-1.1,0.5-1.6c0-0.4-0.1-0.6-0.3-0.7c-0.2-0.1-0.5-0.2-1-0.2v-0.5h5v0.5
			c-0.7,0.1-1.2,0.3-1.4,0.5c-0.3,0.2-0.7,0.7-1.2,1.4c-0.7,1-1.2,1.7-1.5,2.1c-0.3,0.4-0.7,0.9-1.1,1.5c0.4,0.7,0.9,1.3,1.4,1.8
			c0.6,0.5,1.2,0.7,1.9,0.7c0.4,0,0.7-0.1,1.1-0.3c0.2-0.1,0.5-0.3,0.8-0.5l0.3,0.3c-0.5,0.5-0.9,0.9-1.3,1.2
			c-0.7,0.4-1.4,0.7-2.2,0.7c-0.9,0-1.7-0.3-2.4-0.8c-0.4-0.3-0.9-0.8-1.3-1.3c-1.2,0.8-2,1.3-2.6,1.5c-0.9,0.4-1.8,0.6-2.8,0.6
			c-1.5,0-2.7-0.4-3.6-1.2c-0.9-0.8-1.3-1.8-1.3-3c0-0.8,0.2-1.5,0.6-2.2c0.4-0.7,0.9-1.3,1.6-1.8c0.5-0.4,0.9-0.7,1.4-0.9
			c0.4-0.2,1.5-0.7,3.3-1.5C475.9,156.1,475.9,155.7,475.9,155.4z M472.7,165c0.7,0.6,1.5,0.9,2.4,0.9c0.8,0,1.5-0.2,2.2-0.5
			c0.7-0.3,1.2-0.7,1.6-1.1c-0.4-0.6-1-1.6-1.5-3c-0.6-1.4-1-2.7-1.3-3.9c-1.2,0.6-2.1,1.1-2.7,1.6c-1.1,0.9-1.7,2-1.7,3.2
			C471.7,163.5,472,164.4,472.7,165z M480.2,153.8c0.6-0.6,0.8-1.4,0.8-2.4c0-0.5-0.1-0.8-0.3-1.1c-0.2-0.3-0.5-0.5-0.9-0.5
			c-0.8,0-1.3,0.5-1.6,1.4c-0.2,0.5-0.2,1.3-0.2,2.3c0,0.2,0,0.4,0,0.6c0,0.2,0.1,0.6,0.1,1.3C479.2,154.7,479.9,154.1,480.2,153.8z
			"/>
	</g>
	<g>
		<path class="st0" d="M514.3,153.3l-0.5-0.2c0.1-1.2,0-2.3-1.1-3.3c-0.9-0.9-2.1-1.3-3.5-1.3c-5.5,0-8.4,5.3-8.4,9.7
			c0,4.7,2,8.2,6.2,8.2c3.4,0,5.2-1.9,6.5-4.9l0.6,0.1l-1.1,4.6c-0.2-0.1-0.4-0.2-0.7-0.2c-0.4,0-1.2,0.4-1.8,0.6
			c-1.2,0.5-2,0.6-3.5,0.6c-5.2,0-9-3.6-9-9.1c0-5.9,4.9-10.6,10.6-10.6c4,0,4.5,1.3,5.4,1.3c0.4,0,0.6-0.3,0.8-0.5l0.3,0.2
			L514.3,153.3z"/>
		<path class="st0" d="M523.6,154.5c3.1,0,5.2,2.4,5.2,5.5c0,3.8-3.2,7.3-7.1,7.3c-3.2,0-5.3-2.2-5.3-5.4
			C516.4,158,519.7,154.5,523.6,154.5z M521.7,166.6c3.5,0,5-4.8,5-7.5c0-1.9-0.7-3.8-3.1-3.8c-3.6,0-5,4.6-5,7.5
			C518.5,164.8,519.3,166.6,521.7,166.6z"/>
		<path class="st0" d="M531.4,165.5c0-0.9,0.8-1.8,1.8-1.8s1.8,0.8,1.8,1.8c0,1-0.8,1.8-1.8,1.8
			C532.3,167.3,531.4,166.5,531.4,165.5z"/>
	</g>
	<path class="st0" d="M461.2,96.9c0,8.6-4.5,18.9-13.4,18.9c-7.4,0-10.8-6-10.8-16.5c0-14.1,6.2-19.7,15.6-19.7
		c2.8,0,5.7,0.3,8.7,1.1V96.9z M470.1,122.2V50.3h-8.9V73c-3-0.3-5.6-0.5-8.3-0.5c-15.5,0-25.3,10.3-25.3,27.5
		c0,14.3,6,23.1,18,23.1c7.7,0,13.7-4.3,16.5-10.9l0.2,0.1c-0.6,2.9-0.8,7.2-0.8,9.9H470.1z M418.3,122.2V87.9
		c0-8.7-3.5-15.7-14.8-15.7c-8.4,0-14.4,4.5-17.2,11.3l-0.2-0.1c0.6-2.9,0.8-7.4,0.8-10.2h-8.6v49h8.9V98.6c0-10.8,5.8-19,13.9-19
		c6.5,0,8.4,4,8.4,10.9v31.6H418.3z M355.6,100.5c0,7.7-5.3,15.6-13.3,15.6c-4.5,0-7.5-2.7-7.5-6.8c0-4.4,3.7-9.7,20.8-9.7V100.5z
		 M364.6,122.2c-0.1-4.2-0.2-9.5-0.2-14.1V88.6c0-9.8-4-16.4-18.1-16.4c-6.5,0-12.4,1.6-17.1,3.5l0.9,7.6c4.2-2.6,10.1-4,14.8-4
		c8.1,0,10.7,3.6,10.7,10.4v3.6c-18.5,0-29.5,6.8-29.5,17.5c0,7.8,5.5,12.1,13.6,12.1c8.1,0,14.3-4.6,16.6-10.6h0.2
		c-0.5,2.8-0.5,6.3-0.5,9.8H364.6z M316.1,122.2V50.3h-8.9v71.9H316.1z M293.5,122.2v-49h-8.9v49H293.5z M265.6,90.9h-22.9
		c1-7.2,5.5-12,11.9-12C261.6,78.8,265.8,83.7,265.6,90.9z M274.7,92.9c0-11.2-5.8-20.6-19.6-20.6c-13.9,0-21.9,10.9-21.9,25.6
		c0,17.2,8.1,25.1,23.1,25.1c6.1,0,11.8-1.1,16.5-3.1l-0.8-7.2c-3.9,1.9-9.3,3.1-14.3,3.1c-10.4,0-15.9-5.6-15.5-18.7h32
		C274.6,95.5,274.7,94.1,274.7,92.9z M231.4,72.3c-9.8-1.1-14.8,5.7-16.8,12.5h-0.2c0.8-4,1.1-8.6,1.1-11.6h-8.6v49h8.9v-19.7
		c0-15.7,4.9-23.2,15.3-21.5L231.4,72.3z M204.6,50.6c-2.7-0.6-5.3-0.9-8.1-0.9c-12.2,0-18.8,6.4-18.8,19.9v3.6h-10v6.9h10v42.1h8.9
		V80.1h13.6v-6.9h-13.6v-3.7c0-8.7,3.1-12.6,10-12.6c2.4,0,4.9,0.3,7.2,1.1L204.6,50.6z"/>
	<path class="st1" d="M141.7,104.9v8.6c-2.2,0.6-4.6,0.9-7.3,0.9c-11.6,0-18.2-6.3-18.2-16.9c0-11.3,8.1-17.5,19.4-17.5
		c5.3,0,10.6,1,15.2,2.5l1.7-9c-4.9-1.3-10.5-2.2-16.2-2.2c-19.8,0-32,11.3-32,27.1c0,15.4,10.8,24.8,28.9,24.8
		c6.9,0,13.9-1.1,19.6-3.1V96l-19.8,0v8.8L141.7,104.9 M83.4,104.4H67.5l5.2-12.8c1.1-2.9,2-5.8,2.7-8.4h0.1
		c0.7,2.8,1.5,5.3,2.6,8.1L83.4,104.4z M102.4,122.4L82,72.1H69.6l-20,50.3h11.1l4-10.3h21.6l4,10.3H102.4z M48.7,122.4l-21.9-26
		l20.9-24.3H34.3L15.8,94.9V72.1h-11v50.3h11V98.2l18.4,24.2H48.7z"/>
	<path class="st2" d="M240.6,38.2c4,1.8,10.4,6.1,14.3,8.4c3.8,2.3,7.8-4.6,4-6.9c-4.4-2.6-11.3-7.1-15.9-9.2
		C238.9,28.6,236.6,36.3,240.6,38.2L240.6,38.2z"/>
	<path class="st2" d="M235,60.8c6.3,0.4,12.5,0.2,18.8,0c2.8-0.1,5.3-1.3,5.4-3.7c0.1-2-2.1-4.4-4.9-4.3c-6.3,0.2-12.5,0.4-18.8,0
		C228.8,52.4,228.3,60.4,235,60.8L235,60.8z"/>
	<path class="st2" d="M280.1,7.2c-0.5,5.2-1.8,14.6-1.8,19.9c0,5.2,8.1,5,8-0.2c0-5.3,1.3-14.6,1.8-19.9
		C288.6,1.9,280.6,2.1,280.1,7.2L280.1,7.2z"/>
	<path class="st2" d="M302.3,33.4c4.9-6.1,8.7-10.9,13.6-17c3.1-3.9-3.5-8.4-6.5-4.5c-4.9,6.1-8.7,10.9-13.6,17
		C292.7,32.8,299.2,37.3,302.3,33.4L302.3,33.4z"/>
	<path class="st2" d="M313.6,44.9c4.7-1.9,9.4-3.6,14.2-5.4c3.2-1.2,5.7-3.7,5.4-6.2c-0.2-2.2-3.1-3.6-6.2-2.4
		c-4.7,1.8-9.5,3.5-14.2,5.4c-3.1,1.2-5.7,3.6-5.4,6.2C307.6,44.6,310.5,46.1,313.6,44.9L313.6,44.9z"/>
	<path class="st2" d="M254.1,15c2.8,6.7,6.3,13.5,10.5,19.5c2.7,3.8,9.2,0.3,6.5-3.6c-4.2-5.9-7.7-12.8-10.5-19.5
		C258.7,7.1,252.3,10.7,254.1,15L254.1,15z"/>
	<path class="st2" d="M336.4,52.4c-4-0.3-8,0-12,0.3c-1.8,0.1-3.4,1.4-3.6,3.8c-0.1,2,1.2,4.4,3,4.3c4-0.3,8-0.6,12-0.3
		C340.1,60.7,340.7,52.7,336.4,52.4L336.4,52.4z"/>
	<path class="st2" d="M279,46c3.7-1.7,8-2.1,11.8-0.3c4.6,2.1,5.7,3.9,6.8,8.6c1.3,4.4,7.9,3.1,7-1.4c-1.7-7.3-4.6-11.1-11.7-14.1
		c-5.5-2.3-12-1.9-17.3,0.7c-5.3,2.6-0.2,0.1-0.2,0.1c-5.2,2.7-9.4,7.6-10.8,13.5c-1.8,7.5-0.4,12,4.5,17.7c3.1,3.3,8.2-1.1,5.3-4.8
		c-3.1-3.6-3.9-5.6-2.9-10.5c0.8-4.1,3.7-7.3,7.3-9.3C278.8,46,275.4,47.6,279,46z"/>
	<path class="st3" d="M279,46c3.7-1.7,8-2.1,11.8-0.3c4.6,2.1,5.7,3.9,6.8,8.6c1.3,4.4,7.9,3.1,7-1.4c-1.7-7.3-4.6-11.1-11.7-14.1
		c-5.5-2.3-12-1.9-17.3,0.7c-5.3,2.6-0.2,0.1-0.2,0.1c-5.2,2.7-9.4,7.6-10.8,13.5c-1.8,7.5-0.4,12,4.5,17.7c3.1,3.3,8.2-1.1,5.3-4.8
		c-3.1-3.6-3.9-5.6-2.9-10.5c0.8-4.1,3.7-7.3,7.3-9.3C278.8,46,275.4,47.6,279,46z"/>
</g>
</svg>
