<?xml version="1.0" encoding="utf-8"?>
<!-- Generator: Adobe Illustrator 24.0.1, SVG Export Plug-In . SVG Version: 6.00 Build 0)  -->
<svg version="1.1" id="Ebene_1" xmlns="http://www.w3.org/2000/svg" xmlns:xlink="http://www.w3.org/1999/xlink" x="0px" y="0px"
	 viewBox="0 0 415 315" style="enable-background:new 0 0 415 315;" xml:space="preserve">
<style type="text/css">
	.st0{fill:#1D1D1B;}
	.st1{fill:none;stroke:#1D1D1B;stroke-width:0.2515;stroke-miterlimit:10;}
	.st2{fill:none;stroke:#1D1D1B;stroke-width:0.3064;stroke-miterlimit:10;}
</style>
<g>
	<g>
		<path class="st0" d="M5.3,273.2c-4.7,0-3-8-3.1-11c-0.1-6.3,0.2-12.5,0.1-18.7c0-4.5-0.5-9.4,0.2-13.9c0.6-3.4,6.2-3.1,6.6,0.2
			c1.1,9.6,0,19.7,0,29.3c0,3.6,0.6,7.2,4.8,7.8c2.4,0.3,6.4-1,8.7,0.2c1.5,0.8,1.9,3.6,0.9,5c-1.3,1.8-5,1.1-6.9,1.1
			C12.9,273.1,9.1,273.2,5.3,273.2z"/>
		<path class="st0" d="M77.9,273.8c-3.6-0.5-7.4-0.5-11-0.2c-2,0.2-7,0.9-8.7-0.7c-1.2-1.2-0.5-3.6-0.5-5c0.1-2.2,0-4.4,0-6.6
			c-0.1-4-0.2-8,0-12c0.1-4.3-0.1-8.6-0.2-13c-0.1-3-1.1-7.5,2.4-8.6c3.7-1.3,8.1-0.6,11.9-0.3c2.3,0.2,8.3-1,9.6,1.2
			c1.3,2,0,3.8-1.7,4.6c-3.5,1.4-7.1-0.1-10.6,0.5c-4.7,0.9-4.8,4.6-4.6,8.6c0.3,6.8,5.3,5.9,10.6,6.2c1.4,0.1,3,0,3.7,1.3
			c0.5,0.9,0.3,3.3-0.3,4c-1.2,1.4-6.9,1-8.5,1.1c-3.5,0.3-5.6,1.9-5.7,5.8c0,1.7,0.7,4,2,5.1c1.3,1.2,3.5,1,5.1,1.3
			c2,0.4,3.6,0.1,5.6,0c0.8,0,3-0.3,3.8,0.2C83.6,269.6,80.9,274.1,77.9,273.8z"/>
		<path class="st0" d="M126,273.7c-2,0-5.1,0.2-7.1-0.5c-2.7-1-1.7-3.6-1.5-5.8c0.2-2.5-0.5-5-0.3-7.4c0.3-3.1,0-6.1,0-9.2
			c0-4.5,0.2-9,0-13.5c-0.1-3.2-1-8.9,3.2-9.9c2-0.4,4.4,0.3,6.4,0.4c2.4,0.1,4.9-0.3,7.2,0c4.6,0.6,8.7,4.7,10,9.1
			c0.6,2.1,0.7,4.3,0.1,6.4c-0.3,1.1-0.9,2.2-1.5,3.2c-0.6,1-2.3,2.1-2.4,3.3c-0.1,1.8,2.5,3,3.6,4.3c1.5,1.8,2.3,4,2.4,6.3
			C147,272.3,135.1,273.7,126,273.7z M128.2,233.7c-4.1,0-4.2,6.8-3.7,9.4c0.7,3.6,3.3,4.5,6.8,4c3.9-0.6,6.6-3.7,6-7.7
			C136.6,234.9,132.2,233.7,128.2,233.7z M130.1,252.9c-5.1,0-6,3.6-5.9,7.9c0.1,4.6,3,7.3,7.9,6.5c4.3-0.7,7.5-3.1,7.2-7.9
			C139.1,254.7,134.2,252.9,130.1,252.9z"/>
		<path class="st0" d="M214.6,273.4c-5,0-6.1-4.1-6.7-8.2c-0.4-2.9-0.8-5.8-1.6-8.6c-0.9-3-1.1-5.9-2-8.9c-0.5-1.7-0.7-4.8-3-2.6
			c-1.9,1.9-1.8,6.5-2.3,9c-0.6,3.1-1.5,6.1-2,9.2c-0.4,2.6-0.3,5.8-1.7,8.1c-1.6,2.7-7.6,2.4-9.4-0.1c-1.1-1.5-1.2-4.5-1.6-6.3
			c-0.8-3.5-1.5-7.1-2.2-10.6c-1-5.1-2.1-10.3-3.2-15.4c-0.6-3.2-4.4-11.4,0.8-11.7c5.6-0.3,4.4,4.1,5.2,8
			c1.5,6.5,2.2,13.1,3.6,19.7c0.3,1.6,1.3,4.7,3.5,3.1c0.8-0.6,0.7-1.7,0.9-2.5c0.4-1.6,1-3.2,1.4-4.8c1.6-6.8,1.4-14,3.7-20.6
			c0.8-2.3,3.3-3.9,5.8-3.2c2.4,0.6,2.8,3.2,3.3,5.3c1.3,5.1,1.8,10.3,2.9,15.4c0.6,2.7,1.1,5.4,1.7,8.1c0.7,3.1,2.9,4.4,4.3,0.7
			c1-2.8,0.8-6,1.6-8.9c0.8-3.2,0.7-6.4,1.4-9.7c0.4-2.1,0.9-4.2,1.3-6.4c0.4-2,0.2-3.4,2.2-4c0.6-0.2,4.2-0.7,4.7-0.3
			c0.6,0.6,0.5,3.5,0.5,4.3c-0.3,3.1-1.6,6.4-2.2,9.6c-1.1,6-2.7,11.9-3.8,17.9C220.7,263.2,220.7,273.4,214.6,273.4z"/>
		<path class="st0" d="M274.5,273c-6.4,0-10.5-6-12.2-11.5c-1.5-5.2-1.2-10.8-0.9-16.1c0.3-5.1,1.4-10.3,4.9-14.2
			c2.7-3,9-4.4,12.9-3.7c11.7,2.1,13.8,16.7,12.8,26.5c-0.5,5-1.7,11.4-5.2,15.3C283.7,273,279,273,274.5,273z M276.6,233.7
			c-7.6,0-8.7,10.7-8.8,16.3c-0.1,5.3,0.8,18.2,9.1,17.1c7.4-1,8.7-10.2,8.7-16.1C285.7,245.2,284.2,233.7,276.6,233.7z"/>
		<path class="st0" d="M329.9,273.7c-5.1,0-3.1-14.2-3-17.5c0.1-6-0.2-11.9,0.1-17.9c0.2-2.6-0.3-5.2-0.3-7.8c0-1.8,0.4-2.7,2.3-3.2
			c4.4-1.1,5.1,3.1,4.9,6.4c-0.1,2-0.2,4-0.2,6c0.1,2-0.5,4.7,0.4,6.5c1.6,3.4,6,3.1,9.1,2.7c4-0.5,5.4-1.7,5.6-5.6
			c0.1-2.4,0.2-4.8,0.3-7.2c0.1-2.1-0.6-5.7,0.4-7.7c0.9-1.7,4.5-1.9,5.7-0.4c1.1,1.2,0.6,3.8,0.6,5.3c0.1,9.9-0.3,19.9,0,29.8
			c0.1,3.1,1.8,8.6-2,10.1c-4.8,1.9-4.4-3.5-4.4-6.2c0.1-3.2,0.4-8.3-2.3-10.6c-2.3-2-5.8-1.2-8.5-1c-5.4,0.5-4.9,5.4-4.9,9.6
			C333.6,269,335.1,273.7,329.9,273.7z"/>
		<path class="st0" d="M394.6,273.2c-4.7,0-3-8-3.1-11c-0.1-6.3,0.2-12.5,0.1-18.7c0-4.5-0.5-9.4,0.2-13.9c0.6-3.4,6.2-3.1,6.6,0.2
			c1.1,9.6,0,19.7,0,29.3c0,3.6,0.6,7.2,4.8,7.8c2.4,0.3,6.4-1,8.7,0.2c1.5,0.8,1.9,3.6,0.9,5c-1.3,1.8-5,1.1-6.9,1.1
			C402.2,273.1,398.4,273.2,394.6,273.2z"/>
	</g>
	<g>
		<g>
			<path class="st0" d="M115.7,308.6c0,0.8-0.2,1.5-0.5,2.2c-0.4,0.6-0.9,1.2-1.6,1.5c-0.7,0.4-1.5,0.5-2.5,0.5
				c-1.2,0-2.1-0.2-2.9-0.8c-0.5-0.4-1-0.8-1.3-1.4c-0.3-0.6-0.5-1.2-0.5-1.8c0-0.3,0.1-0.6,0.3-0.8c0.2-0.2,0.5-0.4,0.8-0.4
				c0.2,0,0.5,0.1,0.6,0.3c0.2,0.2,0.3,0.5,0.4,0.8c0.1,0.4,0.3,0.8,0.5,1.1c0.2,0.3,0.4,0.5,0.7,0.7c0.3,0.2,0.7,0.3,1.2,0.3
				c0.7,0,1.3-0.2,1.7-0.6c0.4-0.4,0.7-0.8,0.7-1.4c0-0.4-0.1-0.8-0.4-1.1c-0.2-0.3-0.5-0.5-0.9-0.6c-0.4-0.1-0.9-0.3-1.5-0.5
				c-0.8-0.2-1.5-0.5-2.1-0.8s-1-0.7-1.3-1.2s-0.5-1.2-0.5-1.9c0-0.7,0.2-1.4,0.5-2c0.4-0.6,0.9-1,1.5-1.3c0.7-0.3,1.4-0.5,2.3-0.5
				c0.7,0,1.3,0.1,1.9,0.3c0.5,0.2,1,0.5,1.3,0.8c0.3,0.3,0.6,0.7,0.8,1.1c0.2,0.4,0.2,0.7,0.2,1.1c0,0.3-0.1,0.6-0.3,0.9
				c-0.2,0.3-0.4,0.4-0.7,0.4c-0.3,0-0.5-0.1-0.6-0.2c-0.1-0.2-0.3-0.4-0.5-0.8c-0.2-0.5-0.5-0.9-0.8-1.2c-0.3-0.3-0.8-0.4-1.4-0.4
				c-0.6,0-1.1,0.2-1.5,0.5c-0.4,0.3-0.6,0.7-0.6,1.1c0,0.3,0.1,0.5,0.2,0.7c0.1,0.2,0.3,0.4,0.5,0.5c0.2,0.1,0.4,0.2,0.7,0.3
				s0.6,0.2,1.1,0.3c0.7,0.2,1.3,0.4,1.8,0.6c0.5,0.2,1,0.5,1.4,0.8s0.7,0.7,0.9,1.2C115.6,307.4,115.7,307.9,115.7,308.6z"/>
			<path class="st0" d="M134.3,308.4c0,0.4-0.1,0.9-0.3,1.4s-0.5,1-0.9,1.5c-0.4,0.5-0.9,0.9-1.5,1.2c-0.6,0.3-1.3,0.4-2.1,0.4
				c-0.6,0-1.2-0.1-1.7-0.2c-0.5-0.1-1-0.3-1.4-0.6c-0.4-0.3-0.8-0.7-1.1-1.1c-0.3-0.4-0.6-0.9-0.8-1.4s-0.4-1.1-0.5-1.7
				c-0.1-0.6-0.2-1.2-0.2-1.9c0-1.1,0.1-2,0.4-2.9c0.3-0.9,0.7-1.6,1.2-2.2c0.5-0.6,1.1-1.1,1.8-1.4c0.7-0.3,1.4-0.5,2.2-0.5
				c0.9,0,1.8,0.2,2.5,0.7c0.7,0.4,1.3,1,1.7,1.6c0.4,0.6,0.6,1.2,0.6,1.8c0,0.3-0.1,0.6-0.3,0.8c-0.2,0.2-0.4,0.4-0.7,0.4
				c-0.3,0-0.5-0.1-0.7-0.2c-0.2-0.2-0.3-0.4-0.5-0.9c-0.3-0.7-0.7-1.2-1.1-1.5c-0.4-0.3-0.9-0.5-1.5-0.5c-1,0-1.7,0.4-2.3,1.3
				c-0.6,0.8-0.9,2.1-0.9,3.6c0,1,0.1,1.9,0.4,2.6s0.6,1.2,1.1,1.6c0.5,0.3,1,0.5,1.6,0.5c0.7,0,1.3-0.2,1.7-0.6
				c0.5-0.4,0.8-1,1.1-1.7c0.1-0.4,0.2-0.6,0.4-0.9c0.1-0.2,0.4-0.3,0.7-0.3c0.3,0,0.5,0.1,0.7,0.3
				C134.2,307.8,134.3,308.1,134.3,308.4z"/>
			<path class="st0" d="M145.3,300.7v3.8h5.1v-3.8c0-0.5,0.1-1,0.3-1.2c0.2-0.3,0.5-0.4,0.9-0.4c0.4,0,0.6,0.1,0.9,0.4
				s0.3,0.7,0.3,1.2v10.6c0,0.6-0.1,1-0.3,1.2s-0.5,0.4-0.9,0.4c-0.4,0-0.6-0.1-0.9-0.4s-0.3-0.7-0.3-1.2v-4.5h-5.1v4.5
				c0,0.6-0.1,1-0.3,1.2s-0.5,0.4-0.9,0.4c-0.4,0-0.6-0.1-0.9-0.4s-0.3-0.7-0.3-1.2v-10.6c0-0.5,0.1-1,0.3-1.2
				c0.2-0.3,0.5-0.4,0.9-0.4c0.4,0,0.6,0.1,0.9,0.4S145.3,300.1,145.3,300.7z"/>
			<path class="st0" d="M164.2,300.7v9.8h4.8c0.4,0,0.7,0.1,0.9,0.3c0.2,0.2,0.3,0.5,0.3,0.8c0,0.3-0.1,0.6-0.3,0.8
				c-0.2,0.2-0.5,0.3-0.9,0.3h-5.7c-0.5,0-0.9-0.1-1.1-0.4c-0.2-0.3-0.3-0.7-0.3-1.3v-10.3c0-0.5,0.1-1,0.3-1.2
				c0.2-0.3,0.5-0.4,0.9-0.4c0.4,0,0.6,0.1,0.9,0.4S164.2,300.1,164.2,300.7z"/>
			<path class="st0" d="M185.6,311.1l-0.6-1.7h-4.8l-0.6,1.7c-0.2,0.7-0.4,1.1-0.6,1.4c-0.2,0.2-0.4,0.4-0.8,0.4
				c-0.3,0-0.6-0.1-0.8-0.4s-0.3-0.5-0.3-0.9c0-0.2,0-0.4,0.1-0.6c0.1-0.2,0.1-0.5,0.3-0.8l3-8.7c0.1-0.2,0.2-0.5,0.3-0.9
				c0.1-0.4,0.2-0.6,0.4-0.9c0.1-0.2,0.3-0.4,0.5-0.6c0.2-0.1,0.5-0.2,0.8-0.2c0.3,0,0.6,0.1,0.8,0.2c0.2,0.1,0.4,0.3,0.5,0.6
				s0.2,0.5,0.3,0.7c0.1,0.3,0.2,0.6,0.4,1l3.1,8.7c0.2,0.7,0.4,1.1,0.4,1.4c0,0.3-0.1,0.6-0.3,0.9s-0.5,0.4-0.8,0.4
				c-0.2,0-0.3,0-0.5-0.1c-0.1-0.1-0.2-0.2-0.3-0.3c-0.1-0.1-0.2-0.3-0.3-0.6C185.7,311.6,185.7,311.3,185.6,311.1z M180.9,307.4
				h3.5l-1.8-5.5L180.9,307.4z"/>
			<path class="st0" d="M206,308.4c0,0.4-0.1,0.9-0.3,1.4s-0.5,1-0.9,1.5c-0.4,0.5-0.9,0.9-1.5,1.2c-0.6,0.3-1.3,0.4-2.1,0.4
				c-0.6,0-1.2-0.1-1.7-0.2c-0.5-0.1-1-0.3-1.4-0.6c-0.4-0.3-0.8-0.7-1.1-1.1c-0.3-0.4-0.6-0.9-0.8-1.4s-0.4-1.1-0.5-1.7
				c-0.1-0.6-0.2-1.2-0.2-1.9c0-1.1,0.1-2,0.4-2.9c0.3-0.9,0.7-1.6,1.2-2.2c0.5-0.6,1.1-1.1,1.8-1.4c0.7-0.3,1.4-0.5,2.2-0.5
				c0.9,0,1.8,0.2,2.5,0.7c0.7,0.4,1.3,1,1.7,1.6c0.4,0.6,0.6,1.2,0.6,1.8c0,0.3-0.1,0.6-0.3,0.8c-0.2,0.2-0.4,0.4-0.7,0.4
				c-0.3,0-0.5-0.1-0.7-0.2c-0.2-0.2-0.3-0.4-0.5-0.9c-0.3-0.7-0.7-1.2-1.1-1.5c-0.4-0.3-0.9-0.5-1.5-0.5c-1,0-1.7,0.4-2.3,1.3
				c-0.6,0.8-0.9,2.1-0.9,3.6c0,1,0.1,1.9,0.4,2.6s0.6,1.2,1.1,1.6c0.5,0.3,1,0.5,1.6,0.5c0.7,0,1.3-0.2,1.7-0.6
				c0.5-0.4,0.8-1,1.1-1.7c0.1-0.4,0.2-0.6,0.4-0.9c0.1-0.2,0.4-0.3,0.7-0.3c0.3,0,0.5,0.1,0.7,0.3C205.9,307.8,206,308.1,206,308.4
				z"/>
			<path class="st0" d="M217,300.7v3.8h5.1v-3.8c0-0.5,0.1-1,0.3-1.2c0.2-0.3,0.5-0.4,0.9-0.4c0.4,0,0.6,0.1,0.9,0.4
				s0.3,0.7,0.3,1.2v10.6c0,0.6-0.1,1-0.3,1.2s-0.5,0.4-0.9,0.4c-0.4,0-0.6-0.1-0.9-0.4s-0.3-0.7-0.3-1.2v-4.5H217v4.5
				c0,0.6-0.1,1-0.3,1.2s-0.5,0.4-0.9,0.4c-0.4,0-0.6-0.1-0.9-0.4s-0.3-0.7-0.3-1.2v-10.6c0-0.5,0.1-1,0.3-1.2
				c0.2-0.3,0.5-0.4,0.9-0.4c0.4,0,0.6,0.1,0.9,0.4S217,300.1,217,300.7z"/>
			<path class="st0" d="M241.2,301.5h-2.6v9.7c0,0.6-0.1,1-0.3,1.2c-0.2,0.3-0.5,0.4-0.8,0.4c-0.4,0-0.6-0.1-0.9-0.4
				c-0.2-0.3-0.3-0.7-0.3-1.2v-9.7h-2.6c-0.4,0-0.7-0.1-0.9-0.3s-0.3-0.5-0.3-0.8c0-0.3,0.1-0.6,0.3-0.8c0.2-0.2,0.5-0.3,0.9-0.3
				h7.5c0.4,0,0.7,0.1,0.9,0.3c0.2,0.2,0.3,0.5,0.3,0.8c0,0.3-0.1,0.6-0.3,0.8S241.6,301.5,241.2,301.5z"/>
			<path class="st0" d="M250.4,307.1v-6.5c0-0.5,0.1-1,0.3-1.2c0.2-0.3,0.5-0.4,0.9-0.4c0.4,0,0.7,0.1,0.9,0.4
				c0.2,0.3,0.3,0.7,0.3,1.2v6.6c0,0.8,0.1,1.4,0.2,1.9c0.1,0.5,0.4,0.9,0.8,1.2s0.9,0.4,1.6,0.4c0.9,0,1.6-0.3,2-0.8
				c0.4-0.6,0.6-1.4,0.6-2.6v-6.7c0-0.6,0.1-1,0.3-1.2c0.2-0.3,0.5-0.4,0.9-0.4s0.6,0.1,0.9,0.4c0.2,0.3,0.3,0.7,0.3,1.2v6.5
				c0,1-0.1,1.9-0.3,2.6c-0.2,0.7-0.5,1.3-1,1.8c-0.4,0.5-0.9,0.8-1.5,1c-0.6,0.2-1.2,0.3-2,0.3c-0.9,0-1.7-0.1-2.3-0.3
				c-0.6-0.2-1.2-0.6-1.6-1c-0.4-0.5-0.7-1.1-0.9-1.8C250.5,309,250.4,308.1,250.4,307.1z"/>
			<path class="st0" d="M272.4,300.6l4.6,7.9v-8c0-0.5,0.1-0.9,0.3-1.2c0.2-0.3,0.5-0.4,0.8-0.4c0.3,0,0.6,0.1,0.8,0.4
				c0.2,0.3,0.3,0.6,0.3,1.2v10.5c0,1.2-0.4,1.8-1.3,1.8c-0.2,0-0.4,0-0.6-0.1c-0.2-0.1-0.3-0.2-0.5-0.3c-0.1-0.2-0.3-0.3-0.4-0.5
				c-0.1-0.2-0.3-0.4-0.4-0.6l-4.4-7.8v7.9c0,0.5-0.1,0.9-0.3,1.2c-0.2,0.3-0.5,0.4-0.8,0.4c-0.3,0-0.6-0.1-0.8-0.4
				c-0.2-0.3-0.3-0.7-0.3-1.2V301c0-0.4,0-0.8,0.1-1c0.1-0.3,0.3-0.5,0.5-0.7c0.2-0.2,0.5-0.3,0.8-0.3c0.2,0,0.4,0,0.5,0.1
				c0.2,0.1,0.3,0.2,0.4,0.3c0.1,0.1,0.2,0.3,0.4,0.5C272.1,300.2,272.3,300.4,272.4,300.6z"/>
			<path class="st0" d="M298.9,307.2v2.6c0,0.3,0,0.6-0.1,0.8c-0.1,0.2-0.2,0.4-0.3,0.6c-0.2,0.2-0.4,0.3-0.6,0.5
				c-0.7,0.4-1.4,0.8-2,1s-1.4,0.3-2.1,0.3c-0.9,0-1.7-0.2-2.5-0.5c-0.7-0.3-1.4-0.8-1.9-1.4c-0.5-0.6-0.9-1.3-1.2-2.2
				s-0.4-1.8-0.4-2.9c0-1,0.1-2,0.4-2.9c0.3-0.9,0.7-1.6,1.2-2.2c0.5-0.6,1.2-1.1,1.9-1.4c0.8-0.3,1.6-0.5,2.6-0.5
				c0.8,0,1.5,0.1,2.1,0.4c0.6,0.2,1.1,0.5,1.5,0.9c0.4,0.4,0.7,0.8,0.9,1.2c0.2,0.4,0.3,0.8,0.3,1.1c0,0.3-0.1,0.6-0.3,0.9
				s-0.5,0.4-0.8,0.4c-0.2,0-0.3,0-0.5-0.1c-0.2-0.1-0.3-0.2-0.4-0.4c-0.3-0.5-0.5-0.9-0.7-1.2c-0.2-0.3-0.5-0.5-0.8-0.7
				c-0.3-0.2-0.8-0.3-1.3-0.3c-0.5,0-1,0.1-1.5,0.3c-0.4,0.2-0.8,0.5-1.1,0.9c-0.3,0.4-0.5,0.9-0.7,1.5c-0.2,0.6-0.2,1.3-0.2,2
				c0,1.6,0.3,2.8,0.9,3.6c0.6,0.8,1.5,1.3,2.6,1.3c0.5,0,1.1-0.1,1.5-0.2c0.5-0.2,1-0.4,1.5-0.7v-2.2h-1.8c-0.4,0-0.8-0.1-1-0.2
				s-0.3-0.4-0.3-0.8c0-0.3,0.1-0.5,0.3-0.7c0.2-0.2,0.4-0.3,0.8-0.3h2.7c0.3,0,0.6,0,0.8,0.1c0.2,0.1,0.4,0.2,0.6,0.4
				C298.9,306.4,298.9,306.7,298.9,307.2z"/>
		</g>
	</g>
	<g>
		<g>
			<path class="st0" d="M113.7,189.6v4.7l4.7-5.6c0.2-0.3,0.4-0.5,0.6-0.6c0.2-0.1,0.4-0.2,0.6-0.2c0.3,0,0.6,0.1,0.8,0.3
				c0.2,0.2,0.3,0.5,0.3,0.8c0,0.4-0.2,0.8-0.5,1.2l-2.9,3.1l3.3,5.5c0.2,0.4,0.4,0.7,0.5,1c0.1,0.3,0.2,0.6,0.2,0.8
				c0,0.3-0.1,0.6-0.3,0.8c-0.2,0.2-0.5,0.3-0.8,0.3c-0.3,0-0.6-0.1-0.8-0.2s-0.4-0.4-0.5-0.6s-0.3-0.5-0.4-0.7l-2.8-4.9l-1.9,2.1
				v2.8c0,0.6-0.1,1-0.3,1.2c-0.2,0.3-0.5,0.4-0.9,0.4c-0.2,0-0.4-0.1-0.6-0.2c-0.2-0.1-0.3-0.3-0.4-0.5c-0.1-0.2-0.1-0.4-0.1-0.6
				c0-0.2,0-0.6,0-1v-10c0-0.5,0.1-1,0.3-1.2c0.2-0.3,0.5-0.4,0.9-0.4c0.4,0,0.6,0.1,0.9,0.4S113.7,189,113.7,189.6z"/>
			<path class="st0" d="M137.5,200.1l-0.6-1.7h-4.8l-0.6,1.7c-0.2,0.7-0.4,1.1-0.6,1.4c-0.2,0.2-0.4,0.4-0.8,0.4
				c-0.3,0-0.6-0.1-0.8-0.4s-0.3-0.5-0.3-0.9c0-0.2,0-0.4,0.1-0.6c0.1-0.2,0.1-0.5,0.3-0.8l3-8.7c0.1-0.2,0.2-0.6,0.3-0.9
				s0.2-0.6,0.4-0.9c0.1-0.2,0.3-0.4,0.5-0.6c0.2-0.1,0.5-0.2,0.8-0.2c0.3,0,0.6,0.1,0.8,0.2c0.2,0.1,0.4,0.3,0.5,0.6
				s0.2,0.5,0.3,0.7c0.1,0.3,0.2,0.6,0.4,1l3.1,8.7c0.2,0.7,0.4,1.1,0.4,1.4c0,0.3-0.1,0.6-0.3,0.9s-0.5,0.4-0.8,0.4
				c-0.2,0-0.3,0-0.5-0.1c-0.1-0.1-0.2-0.2-0.3-0.3c-0.1-0.1-0.2-0.3-0.3-0.6C137.6,200.5,137.5,200.3,137.5,200.1z M132.8,196.3
				h3.5l-1.8-5.5L132.8,196.3z"/>
			<path class="st0" d="M158.6,196.1v2.6c0,0.3,0,0.6-0.1,0.8c-0.1,0.2-0.2,0.4-0.3,0.6c-0.2,0.2-0.4,0.3-0.6,0.5
				c-0.7,0.4-1.4,0.8-2,1s-1.4,0.3-2.1,0.3c-0.9,0-1.7-0.2-2.5-0.5c-0.7-0.3-1.4-0.8-1.9-1.4c-0.5-0.6-0.9-1.3-1.2-2.2
				s-0.4-1.8-0.4-2.9c0-1,0.1-2,0.4-2.9c0.3-0.9,0.7-1.6,1.2-2.2c0.5-0.6,1.2-1.1,1.9-1.4c0.8-0.3,1.6-0.5,2.6-0.5
				c0.8,0,1.5,0.1,2.1,0.4c0.6,0.2,1.1,0.5,1.5,0.9c0.4,0.4,0.7,0.8,0.9,1.2s0.3,0.8,0.3,1.1c0,0.3-0.1,0.6-0.3,0.9
				c-0.2,0.2-0.5,0.4-0.8,0.4c-0.2,0-0.3,0-0.5-0.1s-0.3-0.2-0.4-0.4c-0.3-0.5-0.5-0.9-0.7-1.2c-0.2-0.3-0.5-0.5-0.8-0.7
				c-0.3-0.2-0.8-0.3-1.3-0.3c-0.5,0-1,0.1-1.5,0.3s-0.8,0.5-1.1,0.9c-0.3,0.4-0.5,0.9-0.7,1.5c-0.2,0.6-0.2,1.3-0.2,2
				c0,1.6,0.3,2.8,0.9,3.6c0.6,0.8,1.5,1.3,2.6,1.3c0.5,0,1.1-0.1,1.5-0.2c0.5-0.2,1-0.4,1.5-0.7v-2.2h-1.8c-0.4,0-0.8-0.1-1-0.2
				c-0.2-0.2-0.3-0.4-0.3-0.8c0-0.3,0.1-0.5,0.3-0.7c0.2-0.2,0.4-0.3,0.8-0.3h2.7c0.3,0,0.6,0,0.8,0.1c0.2,0.1,0.4,0.2,0.6,0.4
				C158.5,195.3,158.6,195.7,158.6,196.1z"/>
			<path class="st0" d="M174.3,190.3h-4.7v3.4h3.9c0.4,0,0.6,0.1,0.8,0.3s0.3,0.4,0.3,0.7s-0.1,0.6-0.3,0.7
				c-0.2,0.2-0.4,0.3-0.8,0.3h-3.9v4.4c0,0.6-0.1,1-0.3,1.2c-0.2,0.3-0.5,0.4-0.9,0.4c-0.4,0-0.6-0.1-0.9-0.4s-0.3-0.7-0.3-1.2
				v-10.3c0-0.4,0.1-0.7,0.2-1s0.3-0.4,0.5-0.5c0.2-0.1,0.5-0.2,0.8-0.2h5.6c0.4,0,0.7,0.1,0.8,0.3c0.2,0.2,0.3,0.4,0.3,0.8
				c0,0.3-0.1,0.6-0.3,0.8C175,190.2,174.7,190.3,174.3,190.3z"/>
			<path class="st0" d="M187,195.9h-0.8v4.3c0,0.6-0.1,1-0.3,1.3s-0.5,0.4-0.9,0.4c-0.4,0-0.7-0.1-0.9-0.4c-0.2-0.3-0.3-0.7-0.3-1.2
				v-10.3c0-0.6,0.1-1,0.3-1.3c0.2-0.3,0.6-0.4,1.1-0.4h3.9c0.5,0,1,0,1.4,0.1c0.4,0.1,0.7,0.2,1,0.3c0.4,0.2,0.7,0.4,1,0.8
				c0.3,0.3,0.5,0.7,0.6,1.1c0.1,0.4,0.2,0.9,0.2,1.4c0,1-0.2,1.8-0.7,2.4c-0.5,0.6-1.2,1-2.2,1.3c0.4,0.3,0.8,0.6,1.2,1.1
				c0.4,0.5,0.7,1,1,1.6c0.3,0.6,0.5,1.1,0.7,1.5c0.2,0.5,0.3,0.8,0.3,0.9c0,0.2,0,0.4-0.1,0.5c-0.1,0.2-0.2,0.3-0.4,0.4
				s-0.4,0.2-0.6,0.2c-0.3,0-0.5-0.1-0.7-0.2c-0.2-0.1-0.3-0.3-0.5-0.5c-0.1-0.2-0.3-0.5-0.5-1l-1-1.8c-0.3-0.7-0.6-1.2-0.9-1.5
				c-0.3-0.3-0.5-0.6-0.8-0.7C187.7,195.9,187.4,195.9,187,195.9z M188.3,190.2h-2.2v3.7h2.1c0.6,0,1-0.1,1.4-0.2
				c0.4-0.1,0.7-0.3,0.9-0.6c0.2-0.3,0.3-0.6,0.3-1.1c0-0.4-0.1-0.7-0.2-1c-0.2-0.3-0.4-0.5-0.7-0.6
				C189.7,190.3,189.1,190.2,188.3,190.2z"/>
			<path class="st0" d="M209.8,190.3h-5.3v3.3h4.9c0.4,0,0.6,0.1,0.8,0.3s0.3,0.4,0.3,0.7c0,0.3-0.1,0.6-0.3,0.7
				c-0.2,0.2-0.4,0.3-0.8,0.3h-4.9v3.8h5.5c0.4,0,0.7,0.1,0.8,0.3s0.3,0.5,0.3,0.8c0,0.3-0.1,0.6-0.3,0.8s-0.5,0.3-0.8,0.3h-6.4
				c-0.5,0-0.9-0.1-1.1-0.4c-0.2-0.3-0.3-0.7-0.3-1.3v-10.1c0-0.4,0.1-0.7,0.2-1s0.3-0.4,0.5-0.5s0.5-0.2,0.8-0.2h6.3
				c0.4,0,0.7,0.1,0.8,0.3c0.2,0.2,0.3,0.4,0.3,0.8c0,0.3-0.1,0.6-0.3,0.8C210.4,190.2,210.2,190.3,209.8,190.3z"/>
			<path class="st0" d="M219.6,200.2v-10.6c0-0.5,0.1-1,0.3-1.2s0.5-0.4,0.8-0.4c0.4,0,0.6,0.1,0.9,0.4c0.2,0.3,0.3,0.7,0.3,1.2
				v10.6c0,0.6-0.1,1-0.3,1.2c-0.2,0.3-0.5,0.4-0.9,0.4c-0.3,0-0.6-0.1-0.8-0.4S219.6,200.7,219.6,200.2z"/>
			<path class="st0" d="M233.5,189.6v9.8h4.8c0.4,0,0.7,0.1,0.9,0.3c0.2,0.2,0.3,0.5,0.3,0.8c0,0.3-0.1,0.6-0.3,0.8
				c-0.2,0.2-0.5,0.3-0.9,0.3h-5.7c-0.5,0-0.9-0.1-1.1-0.4c-0.2-0.3-0.3-0.7-0.3-1.3v-10.3c0-0.5,0.1-1,0.3-1.2
				c0.2-0.3,0.5-0.4,0.9-0.4c0.4,0,0.6,0.1,0.9,0.4S233.5,189,233.5,189.6z"/>
			<path class="st0" d="M254.8,200.1l-0.6-1.7h-4.8l-0.6,1.7c-0.2,0.7-0.4,1.1-0.6,1.4c-0.2,0.2-0.4,0.4-0.8,0.4
				c-0.3,0-0.6-0.1-0.8-0.4s-0.3-0.5-0.3-0.9c0-0.2,0-0.4,0.1-0.6c0.1-0.2,0.1-0.5,0.3-0.8l3-8.7c0.1-0.2,0.2-0.6,0.3-0.9
				s0.2-0.6,0.4-0.9c0.1-0.2,0.3-0.4,0.5-0.6c0.2-0.1,0.5-0.2,0.8-0.2c0.3,0,0.6,0.1,0.8,0.2c0.2,0.1,0.4,0.3,0.5,0.6
				s0.2,0.5,0.3,0.7c0.1,0.3,0.2,0.6,0.4,1l3.1,8.7c0.2,0.7,0.4,1.1,0.4,1.4c0,0.3-0.1,0.6-0.3,0.9s-0.5,0.4-0.8,0.4
				c-0.2,0-0.3,0-0.5-0.1c-0.1-0.1-0.2-0.2-0.3-0.3c-0.1-0.1-0.2-0.3-0.3-0.6C255,200.5,254.9,200.3,254.8,200.1z M250.2,196.3h3.5
				l-1.8-5.5L250.2,196.3z"/>
			<path class="st0" d="M268.7,189.6l4.6,7.9v-8c0-0.5,0.1-0.9,0.3-1.2s0.5-0.4,0.8-0.4c0.3,0,0.6,0.1,0.8,0.4
				c0.2,0.3,0.3,0.6,0.3,1.2v10.5c0,1.2-0.4,1.8-1.3,1.8c-0.2,0-0.4,0-0.6-0.1c-0.2-0.1-0.3-0.2-0.5-0.3s-0.3-0.3-0.4-0.5
				c-0.1-0.2-0.3-0.4-0.4-0.6l-4.4-7.8v7.9c0,0.5-0.1,0.9-0.3,1.2s-0.5,0.4-0.8,0.4c-0.3,0-0.6-0.1-0.8-0.4
				c-0.2-0.3-0.3-0.7-0.3-1.2v-10.3c0-0.4,0-0.8,0.1-1c0.1-0.3,0.3-0.5,0.5-0.7c0.2-0.2,0.5-0.3,0.8-0.3c0.2,0,0.4,0,0.5,0.1
				c0.2,0.1,0.3,0.2,0.4,0.3c0.1,0.1,0.2,0.3,0.4,0.5C268.5,189.1,268.6,189.3,268.7,189.6z"/>
			<path class="st0" d="M286.1,188.2h3.1c0.8,0,1.5,0.1,2.1,0.3s1.1,0.5,1.6,1c1.2,1.2,1.8,3,1.8,5.5c0,0.8-0.1,1.5-0.2,2.2
				c-0.1,0.7-0.3,1.3-0.6,1.8s-0.6,1-1,1.4c-0.3,0.3-0.7,0.6-1,0.8c-0.4,0.2-0.8,0.3-1.2,0.4c-0.4,0.1-0.9,0.1-1.4,0.1h-3.1
				c-0.4,0-0.8-0.1-1-0.2s-0.4-0.4-0.4-0.6c-0.1-0.3-0.1-0.6-0.1-1.1v-9.8c0-0.6,0.1-1,0.3-1.3C285.2,188.3,285.6,188.2,286.1,188.2
				z M287,190.3v9.1h1.8c0.4,0,0.7,0,0.9,0s0.5-0.1,0.7-0.2c0.2-0.1,0.4-0.2,0.6-0.4c0.8-0.8,1.2-2.1,1.2-4c0-1.3-0.2-2.3-0.5-3
				c-0.3-0.7-0.8-1.1-1.3-1.3c-0.5-0.2-1.1-0.3-1.9-0.3H287z"/>
		</g>
	</g>
	<path class="st1" d="M83.7,304.3c-27.7,0-55.4,0-83.1,0"/>
	<path class="st2" d="M93,196.3c-30.3,0-60.6,0-90.9,0"/>
	<path class="st2" d="M405.7,196.3c-30.3,0-60.6,0-90.9,0"/>
	<path d="M404,135.2c-0.1-0.9-0.6-1.6-1.7-1.8c-0.9-0.1-1.2-0.7-1.2-1.6c0.1-0.6,0.1-1.2,0.2-1.8c0.3-3.1,0.1-3.5-2.8-5
		c-0.1-0.1-0.2-0.2-0.3-0.3c-0.2-1.4-0.7-2.9-0.4-4.2c0.4-1.8,0-3.1-0.9-4.5c-0.2-0.4-0.4-0.9-0.4-1.3c0.1-1.2,0.4-2.4,0.3-3.5
		c-0.2-2.3,0.4-4.7-1.4-6.9c-1.4-1.6-3-2.4-5-2.4c-2,0-4,0.2-6,0.3c-0.4,0-0.8-0.1-1.1-0.3c-0.9-0.6-1.8-0.5-2.7-0.4
		c-1.2,0.1-2.4,0.1-3.6,0.2c-1.1,0.1-2.2,0.4-3.3,0.6c-1,0.2-2,0.3-2.9,0.5c-1.9,0.4-4,0.6-5.8,1.3c-1.3,0.5-2.3,0.8-3.6,0.5
		c-1.5-0.4-3-0.4-4.5,0.2c-1.1,0.4-2.3,0.6-3.5,0.7c-1.4,0.2-2.7,0.2-4.2,0.3c0-0.5-0.1-0.7,0-0.8c2.3-4.8,2.1-9.9,1.7-15
		c-0.1-0.8-0.3-2,0.1-2.3c1.2-1.1,1.2-2.6,1.4-4c1.3-0.6,2.3-1.4,2.6-2.7c0.2-1,0.5-1.8,1.2-2.4c0.8-0.8,0.8-1.6,0.4-2.6
		c-1.5-4-2.9-8.1-4.3-12.1c-0.2-0.6-0.4-1.2-0.4-1.8c-0.4-4-2.2-7.5-3.9-11.1c-1.7-3.7-4.5-6.3-8-8.3c-0.5-0.3-1.1-0.6-1.6-0.9
		c-1.8-1.1-3.7-2.2-5.5-3.4c-1-0.7-1.8-1.2-3-1.4c-1.3-0.2-2.5-0.7-2.4-2.3c0.4-0.7,0.8-1.3,1-2c0.2-1.1,0.4-2.1,1-3
		c0.6-0.9,0.8-1.8,0.8-2.9c3.9,0.3,7.3,0.4,9.8,0.3l-10.5-3.7c-0.4-1.3-1-2.6-1.7-3.9l-1.3-7.6l-16.6-1.7l-4.4,9l-11.5,3
		c0.3,0,4.5,0.7,10.3,1.5c0,0.3,0,0.7,0,1c0,0.9,0.4,1.6,1.2,2.2c2.1,1.5,2.5,2.6,1.3,5.1c-0.1,0.2-0.2,0.5-0.3,0.8
		c0.6,0.4,1.1,0.7,1.7,1.1c-0.7,1.2-0.3,2.1,0.3,3.1c0.4,0.7,0.7,1.4,0.9,2.2c0.4,1.3,0.9,1.9,2.3,1.8c1.1-0.1,2.2-0.3,3.5-0.5
		c0.4,0.4,0.8,1,1.2,1.4c0.9,0.9,1.1,1.8,0.3,2.9c-0.5,0.8-0.8,1.7-1,2.6c-5.2,4.5-10.4,9.1-15.6,13.6c-4.4-3.1-9.3-7-14.4-12
		c-3.9-3.9-7.2-7.7-10-11.3c-0.8-2.2-1.7-4.4-0.8-7c3.2-0.5,6.4-0.9,9.5-1.6c3.9-0.9,5.6-2.4,6.7-5.8c-5.5,2.7-10.4,1.5-14.3-1.3
		c-2.4,0.3-4.2,0.5-5.9,0.6c-1.6,0.1-3.3-0.2-4.7,0.3c-5.2,1.9-10.3,1.8-15.6,0.5c-1.1-0.3-2.2-0.2-3.4-0.4
		c-7.9-1.2-15.9-2.1-23.5-4.9c-6-2.2-12.1-4.3-18.1-6.4c-2.7-1-5.5-1.8-8.1-3c-7.5-3.5-15.2-5.8-23.7-5.1
		c-7.7,0.6-15.4,0.6-23.1-0.6c-5.4-0.8-11-1.6-16.3-0.9c-7.9,1-15.7,0.9-23.6,0.8C105,2.9,98.8,3.3,92.6,4.5
		c-7.1,1.3-14.3,2.1-21.6,1.1c-5.4-0.7-10.7-0.4-16.2,0.4C49.5,6.9,44,6.5,38.5,6.6c-6.9,0.1-12.2,3.5-15.5,9.1
		c-3.2,5.4-4.7,11.6-4.6,18c0.1,10.1,0.5,20.3,0.3,30.4c-0.2,9.2-1,18.3-5.4,26.7c-1.5,2.9-2.1,6.4-3,9.6c-1,3.9-1.7,7.8-2.8,11.7
		c-3,11.2-4.4,22.7-5.8,34.2c-0.1,0.8,0.7,1.7,1.3,3c3-3.5,3.5-7.2,4.4-10.7c1.4-5.8,2.6-11.6,4-17.4c0.2-0.7,0.9-1.3,1.3-1.9
		c0.3,0.1,0.7,0.2,1,0.3c-1.4,10.3-2.8,20.7-4.3,31.3c-3.6,0-6.3,0-7.7,0c0,5.8,0,11.6,0,17.3c94.1,0,311,0,405.1,0
		c0-10.1,0-20.2,0-30.2C405.4,137.7,404.2,137,404,135.2z M25.3,37.9c5.6,12.1,7.1,24.7,7.1,37.6c0,0.5,0,1-0.1,1.4
		c-1.9,6-5.5,10.9-9.8,15.6C25.2,74.4,24.7,56.1,25.3,37.9z M23,151c-0.1-0.4-0.2-0.8-0.3-1.2c-1.8-8.8,0.1-17.3,2.4-25.7
		c0.3-1.2,1-2.4,1.8-3.4c7.1-8.9,14.3-17.8,21.6-26.5c0.9-1.1,3.1-1.7,4.7-1.5c2.2,0.2,2.3,2.4,2.4,4.2c0.3,4.3,1,8.7,0.7,13
		c-0.4,6.3,1.2,11.2,5.8,15.9c6.4,6.6,11.7,14.1,17.5,21.2c1,1.3,2.1,2.6,3.1,4C60.6,150.9,38.6,151,23,151z M167.2,144.9
		c-1.5,1.6-3.3,3.5-3.2,5.8c-9.2,0.1-35.9,0.1-65.1,0.1c-5.4-5.8-10.7-11.5-16-17.4c-1.3-1.5-2.5-3.5-2.9-5.4
		c-1.8-11-2.3-22.1-2.4-33.2c0-2.6,0.3-5.1,2.9-6.9c1,0.4,2,0.9,3.1,1.2c6.8,2.3,13.7,4.6,20.6,6.7c1.8,0.5,3.8,0.7,5.7,0.4
		c9.4-1.3,18.8-2.7,28.1-4.2c7.4-1.2,14.7-1.3,22.1-0.2c2.5,0.3,4.9,1.1,5.3,4c0.8,5.6,1.3,11.1,1.8,16.7c0.3,3.3,0.2,6.7,0.5,10
		c0.5,4.8,1.2,9.5,1.9,14.3C170.1,140.1,169.5,142.5,167.2,144.9z M182.1,115.7c4.2,7.8,2.4,14.7-3.6,21
		C178.1,129.1,180.6,122.9,182.1,115.7z M306.8,115.5c-0.8,0.2-1.6,1.2-2.1,2c-1.2,2.1-2.4,4.2-3.4,6.4c-0.7,1.6-1.4,3.3-1.1,5.2
		c0.2,1.5-0.1,3-0.6,4.5c-0.7,2-1.1,4.1-2.1,6c-0.3,0.6-0.3,1.4-0.4,2.2c-0.2,0.8-0.4,1.7-1.4,1.8c-1.1,0.1-2.4,0.9-3.4-0.4
		c-0.5-0.6-1-1.2-1.4-1.9c-0.4-0.7-0.4-1.4-0.1-2.3c0.9-2.3,1.5-4.6,2.3-6.9c0.5-1.4,0.8-2.8,1.4-4.2c2.3-5.6,4.1-11.3,5.2-17.4
		c4.7,0.6,9.3,0,13.9,0.9C311.3,113.2,309.5,115,306.8,115.5z M317.7,76c-0.4,1.1-1,2.2-1.7,3.2c-0.8,1.2-1.8,2.4-2.7,3.5
		c-1.6,2.1-3.1,4.2-4.7,6.3c-0.6,0.8-1.3,1.2-2.4,1.3c-4.1,0.5-8.1,0.9-12.2,1.5c-4.8,0.7-9.6,1.4-14.2,3c-0.9,0.3-1.7,0.8-2.5,1.3
		c-1.9,1.3-2.7,3.4-2.6,5.6c0,2.9,0.2,5.8,0.3,8.7c0.1,2.5,0.1,5.1,0,7.6c-0.3,5.3-1.4,10.5-1.5,15.8c0,3-0.2,3,2.5,4.1
		c0.9,0.3,1.1,0.8,1,1.7c-0.1,0.8-0.3,1.5-1.2,1.9c-0.9,0.5-1.6,1.2-2.5,1.7c-2.3,1.4-4.6,2.7-7,4c-1.2,0.7-2.6,1.1-3.8,1.8
		c-0.9,0.6-1.8,0.8-2.8,0.8c-3.8,0-7.7,0-11.5,0c-9.7,0-19.3-0.1-29-0.1c-4.9,0-9.8,0.3-14.7,0.4c-7.2,0.1-14.4,0.2-21.7,0.3
		c0,0,0,0,0,0c3.8-3.5,5.5-8.1,6.9-12.9c0.9-3,2.4-5.5,4.8-7.6c2.6-2.4,3.8-5.5,3.9-9c0.1-3.1-0.4-6-1.8-8.9
		c-1.9-3.7-3.5-7.5-5.3-11.5c5.1-3.5,9.5-7.2,15.3-8.7c4.9-1.2,8.8-3.9,12.1-7.5c2.3-2.5,4.4-5.1,6.6-7.7c1.6-1.8,3.1-3.7,5-5.2
		c4.7-3.8,8.7-3.7,13.5,0.1c2.1,1.7,4.2,3.5,6.3,5.2c4,3.3,8.2,6.1,13.6,6.7c1.9,0.2,3.7,1,4.8,2.9c1.2,2.1,3.2,2.8,5.4,2.5
		c2.7-0.3,5.5-0.7,7.9-1.7c4-1.7,6.5-4.2,4.3-10c-2.4-6.5-4.5-13.1-6.6-19.6c-0.6-1.8-1.3-3.9-1-5.6c0.1-0.4,0.1-0.8,0.1-1.2
		c1.4,0.4,2.8,1.1,3.8,2.2c2,2.2,1.8,4.6,2.4,7.2c1.5,6.5,8,13,14.4,14c6.4,1,13-3.5,17.1-9.7c-0.1,1.4-0.2,2.8-0.4,4.2
		c-0.2,1.1,0.2,2.1,0.9,2.8C318.3,72.9,318.3,74.4,317.7,76z"/>
</g>
</svg>
