<?xml version="1.0" encoding="utf-8"?>
<!-- Generator: Adobe Illustrator 24.0.1, SVG Export Plug-In . SVG Version: 6.00 Build 0)  -->
<svg version="1.1" id="Ebene_1" xmlns="http://www.w3.org/2000/svg" xmlns:xlink="http://www.w3.org/1999/xlink" x="0px" y="0px"
	 viewBox="0 0 570 568" style="enable-background:new 0 0 570 568;" xml:space="preserve">
<style type="text/css">
	.st0{fill:#CABA9F;stroke:#1D1D1B;stroke-width:0.4215;stroke-miterlimit:10;}
	.st1{fill:#FFFFFF;stroke:#1D1D1B;stroke-width:0.4215;stroke-miterlimit:10;}
	.st2{fill:#1D1D1B;}
</style>
<g>
	<circle class="st0" cx="285.14" cy="284.86" r="276.8"/>
	<circle class="st1" cx="286.9" cy="289.29" r="189.64"/>
	<g>
		<path class="st2" d="M127.88,438.94l-7.12,7.05l15.92-0.76c0.77-0.04,1.37-0.03,1.82,0.03c0.45,0.06,0.88,0.31,1.3,0.73
			c0.55,0.55,0.82,1.17,0.81,1.85c-0.01,0.69-0.26,1.28-0.76,1.77c-0.6,0.59-1.48,0.89-2.65,0.9l-9.38-0.01l-2.89,13.58
			c-0.2,0.95-0.41,1.74-0.65,2.35c-0.24,0.61-0.56,1.12-0.97,1.52c-0.45,0.45-1.01,0.67-1.67,0.66c-0.66,0-1.28-0.29-1.85-0.87
			c-0.53-0.53-0.84-1.09-0.93-1.67c-0.09-0.58-0.05-1.18,0.13-1.83c0.18-0.63,0.34-1.2,0.49-1.72l2.95-11.96l-6.35,0.03l-4.19,4.16
			c-0.85,0.84-1.66,1.28-2.43,1.32c-0.77,0.04-1.44-0.22-2.01-0.79c-0.32-0.33-0.55-0.73-0.66-1.23c-0.12-0.48-0.1-0.96,0.05-1.44
			c0.14-0.38,0.36-0.75,0.68-1.11c0.32-0.36,0.8-0.87,1.45-1.51l15.08-14.95c0.83-0.82,1.62-1.27,2.38-1.33
			c0.76-0.07,1.42,0.18,2,0.78c0.58,0.58,0.84,1.25,0.78,2.02C129.17,437.3,128.72,438.11,127.88,438.94z"/>
		<path class="st2" d="M171.94,500.69l0.69-3.74l-9.43-5.47l-2.94,2.53c-1.15,0.98-2,1.61-2.56,1.86c-0.56,0.26-1.19,0.18-1.88-0.22
			c-0.59-0.34-0.98-0.87-1.17-1.6c-0.19-0.72-0.11-1.38,0.23-1.96c0.19-0.34,0.45-0.66,0.77-0.95c0.31-0.31,0.77-0.7,1.39-1.2
			l15.24-12.61c0.44-0.36,0.96-0.8,1.57-1.31c0.61-0.51,1.18-0.9,1.69-1.16c0.51-0.28,1.07-0.42,1.66-0.43s1.21,0.17,1.85,0.54
			c0.65,0.38,1.12,0.83,1.4,1.35c0.29,0.51,0.45,1.06,0.47,1.63c0.03,0.57,0,1.16-0.1,1.74c-0.09,0.58-0.23,1.35-0.4,2.32
			l-3.18,19.46c-0.23,1.49-0.5,2.51-0.82,3.06c-0.33,0.57-0.86,0.97-1.58,1.19c-0.73,0.21-1.4,0.14-2.04-0.23
			c-0.36-0.22-0.64-0.47-0.82-0.76c-0.18-0.3-0.29-0.61-0.33-0.96c-0.04-0.34-0.02-0.82,0.06-1.45
			C171.79,501.71,171.86,501.16,171.94,500.69z M166.61,488.44l6.93,4.01l2.41-12.22L166.61,488.44z"/>
		<path class="st2" d="M239.32,516.91l-1.41,5.29c-0.19,0.71-0.41,1.24-0.65,1.63c-0.24,0.39-0.58,0.71-1.02,0.94
			c-0.44,0.25-0.97,0.45-1.59,0.63c-1.81,0.48-3.49,0.74-5.05,0.77c-1.56,0.03-3.19-0.19-4.9-0.64c-1.99-0.53-3.72-1.35-5.19-2.43
			c-1.46-1.09-2.6-2.41-3.42-3.97c-0.82-1.55-1.31-3.29-1.45-5.22c-0.14-1.94,0.08-3.99,0.66-6.18c0.57-2.14,1.4-4.03,2.47-5.65
			c1.08-1.62,2.36-2.9,3.86-3.83c1.5-0.93,3.17-1.5,5.02-1.72c1.86-0.21,3.83-0.03,5.95,0.53c1.75,0.47,3.23,1.12,4.44,1.98
			c1.21,0.86,2.13,1.77,2.77,2.75c0.63,0.98,1.05,1.94,1.25,2.9c0.2,0.95,0.21,1.75,0.04,2.4c-0.19,0.71-0.59,1.24-1.21,1.6
			c-0.62,0.37-1.27,0.45-1.96,0.28c-0.38-0.1-0.71-0.3-1.01-0.58c-0.3-0.28-0.52-0.63-0.66-1.03c-0.36-1.24-0.69-2.21-0.98-2.88
			c-0.3-0.68-0.78-1.3-1.44-1.88c-0.66-0.58-1.57-1.02-2.75-1.34c-1.22-0.33-2.36-0.39-3.43-0.2c-1.08,0.19-2.06,0.62-2.97,1.28
			c-0.91,0.67-1.7,1.57-2.39,2.71c-0.68,1.13-1.23,2.44-1.63,3.93c-0.87,3.24-0.84,5.91,0.1,8.03c0.93,2.12,2.64,3.51,5.14,4.18
			c1.21,0.32,2.4,0.45,3.56,0.4c1.15-0.05,2.36-0.24,3.62-0.58l1.2-4.48l-4.06-1.09c-0.98-0.26-1.67-0.61-2.09-1.06
			c-0.41-0.45-0.52-1.05-0.32-1.8c0.16-0.61,0.51-1.06,1.03-1.35c0.53-0.29,1.14-0.34,1.86-0.15l5.96,1.59
			c0.73,0.19,1.33,0.43,1.8,0.71c0.47,0.27,0.8,0.69,0.98,1.25C239.61,515.21,239.58,515.96,239.32,516.91z"/>
		<path class="st2" d="M294.33,509.04l-10.7-0.01l-0.01,7.3l8.94,0.01c0.83,0,1.45,0.2,1.86,0.6c0.41,0.4,0.61,0.92,0.61,1.59
			c0,0.66-0.21,1.19-0.62,1.58c-0.41,0.39-1.03,0.59-1.85,0.59l-8.94-0.01l-0.01,9.41c0,1.2-0.26,2.08-0.76,2.66
			c-0.5,0.57-1.15,0.87-1.95,0.86c-0.81-0.01-1.46-0.29-1.96-0.88c-0.51-0.58-0.76-1.47-0.76-2.65l0.02-21.97
			c0-0.83,0.12-1.51,0.35-2.04c0.23-0.52,0.6-0.91,1.09-1.14c0.49-0.24,1.13-0.36,1.89-0.36l12.8,0.01c0.87,0,1.51,0.2,1.93,0.62
			c0.42,0.41,0.63,0.94,0.63,1.61c0,0.68-0.21,1.22-0.64,1.62C295.84,508.84,295.19,509.04,294.33,509.04z"/>
		<path class="st2" d="M341.18,514.45l-1.84,0.47l2.28,8.89c0.3,1.17,0.28,2.09-0.06,2.77c-0.34,0.68-0.9,1.12-1.68,1.32
			c-0.84,0.21-1.56,0.08-2.17-0.37c-0.61-0.46-1.06-1.25-1.34-2.37l-5.47-21.28c-0.31-1.2-0.28-2.14,0.08-2.82
			c0.37-0.66,1.12-1.15,2.26-1.44l8.55-2.19c1.18-0.31,2.2-0.51,3.07-0.62c0.87-0.11,1.67-0.08,2.43,0.07
			c0.91,0.15,1.76,0.5,2.56,1.01c0.81,0.52,1.48,1.19,2.04,2c0.56,0.82,0.97,1.73,1.22,2.73c0.53,2.06,0.41,3.85-0.37,5.36
			c-0.78,1.52-2.21,2.82-4.3,3.9c1.07,0.29,2.16,0.84,3.28,1.65c1.11,0.81,2.16,1.72,3.12,2.71c0.97,1,1.75,1.91,2.37,2.75
			c0.61,0.84,0.97,1.44,1.05,1.79c0.09,0.37,0.08,0.76-0.05,1.17c-0.13,0.41-0.35,0.78-0.67,1.08c-0.32,0.31-0.74,0.53-1.23,0.65
			c-0.59,0.15-1.13,0.13-1.6-0.06c-0.48-0.19-0.92-0.49-1.33-0.86c-0.4-0.38-0.97-0.94-1.69-1.7l-3.07-3.19
			c-1.11-1.18-2.06-2.06-2.83-2.62c-0.78-0.56-1.51-0.9-2.19-1C342.91,514.14,342.11,514.21,341.18,514.45z M341.2,502.05
			l-4.85,1.24l1.95,7.61l4.71-1.22c1.27-0.32,2.3-0.71,3.1-1.17c0.8-0.46,1.36-1.02,1.67-1.7c0.31-0.67,0.34-1.5,0.09-2.48
			c-0.2-0.77-0.55-1.4-1.07-1.89c-0.52-0.49-1.14-0.8-1.86-0.92C344.26,501.42,343.01,501.59,341.2,502.05z"/>
		<path class="st2" d="M400.8,477.37l-10.7,5.94l3.4,6.13l9.85-5.47c0.72-0.4,1.36-0.52,1.91-0.38c0.55,0.15,0.98,0.51,1.3,1.08
			c0.31,0.57,0.39,1.13,0.24,1.68c-0.16,0.55-0.6,1.03-1.34,1.44l-9.85,5.47l3.94,7.1l11.07-6.13c0.74-0.42,1.41-0.55,1.99-0.38
			c0.59,0.16,1.05,0.54,1.39,1.15c0.33,0.59,0.4,1.18,0.23,1.75c-0.17,0.58-0.63,1.08-1.37,1.5l-12.91,7.16
			c-1.03,0.58-1.91,0.75-2.64,0.51c-0.73-0.24-1.39-0.9-1.99-1.99l-10.42-18.77c-0.4-0.72-0.63-1.37-0.68-1.95
			c-0.05-0.57,0.08-1.08,0.4-1.53c0.31-0.45,0.81-0.86,1.48-1.23l12.54-6.95c0.75-0.43,1.41-0.56,1.98-0.4
			c0.57,0.15,1.01,0.52,1.34,1.1c0.33,0.59,0.4,1.17,0.24,1.73C402.02,476.45,401.55,476.95,400.8,477.37z"/>
		<path class="st2" d="M444.06,471.77l-14.88-16.88c-0.78-0.88-1.17-1.71-1.18-2.48c-0.01-0.76,0.28-1.41,0.87-1.93
			c0.61-0.54,1.3-0.77,2.06-0.67c0.77,0.1,1.54,0.6,2.32,1.49l14.88,16.87c0.78,0.89,1.18,1.72,1.18,2.49
			c0.01,0.78-0.29,1.44-0.9,1.98c-0.59,0.51-1.26,0.72-2.03,0.61C445.6,473.13,444.83,472.64,444.06,471.77z"/>
		<path class="st2" d="M459.99,422.31l16.67,12.43l6.58-8.83c0.53-0.7,1.11-1.1,1.76-1.21c0.65-0.1,1.24,0.04,1.79,0.45
			c0.56,0.42,0.88,0.95,0.95,1.58c0.07,0.63-0.16,1.29-0.69,2.02l-7.83,10.51c-0.71,0.95-1.44,1.46-2.2,1.54
			c-0.76,0.08-1.63-0.25-2.64-0.99l-17.63-13.14c-0.94-0.7-1.5-1.42-1.66-2.17c-0.18-0.74-0.02-1.44,0.46-2.08
			c0.49-0.66,1.11-1.02,1.88-1.07C458.18,421.29,459.04,421.61,459.99,422.31z"/>
		<path class="st2" d="M511.58,375.48l-3.81-0.19l-4.18,10.06l2.89,2.59c1.13,1.01,1.85,1.77,2.18,2.29
			c0.33,0.52,0.33,1.15,0.02,1.89c-0.26,0.63-0.73,1.09-1.43,1.36c-0.69,0.29-1.35,0.29-1.98,0.03c-0.36-0.15-0.71-0.36-1.04-0.63
			c-0.34-0.27-0.8-0.67-1.37-1.22l-14.5-13.46c-0.41-0.39-0.92-0.85-1.5-1.38c-0.58-0.54-1.05-1.05-1.38-1.52
			c-0.34-0.48-0.55-1.01-0.63-1.59c-0.09-0.59,0.01-1.22,0.29-1.91c0.29-0.7,0.68-1.22,1.15-1.57c0.48-0.35,1-0.58,1.56-0.67
			c0.56-0.11,1.14-0.15,1.73-0.13c0.59,0.01,1.38,0.04,2.35,0.1l19.71,0.6c1.51,0.03,2.55,0.18,3.14,0.41
			c0.61,0.26,1.07,0.72,1.39,1.42c0.31,0.69,0.32,1.36,0.04,2.04c-0.16,0.4-0.38,0.7-0.65,0.92c-0.26,0.22-0.57,0.37-0.91,0.46
			c-0.33,0.08-0.82,0.13-1.44,0.12C512.61,375.5,512.05,375.49,511.58,375.48z M500.13,382.36l3.07-7.39l-12.44-0.79L500.13,382.36z
			"/>
		<path class="st2" d="M502.89,320.88l18.01-8.23l-16.85-2.15c-1.09-0.14-1.89-0.46-2.38-0.98c-0.49-0.51-0.69-1.14-0.59-1.89
			c0.1-0.77,0.45-1.35,1.05-1.73c0.61-0.38,1.45-0.5,2.55-0.36l22.28,2.84c2.49,0.32,3.6,1.45,3.36,3.38
			c-0.06,0.48-0.19,0.91-0.39,1.28c-0.19,0.37-0.48,0.7-0.84,0.99c-0.36,0.3-0.78,0.57-1.25,0.8c-0.47,0.24-0.95,0.47-1.44,0.71
			l-17.78,8.01l16.6,2.11c1.08,0.14,1.87,0.47,2.36,1.02c0.5,0.55,0.69,1.19,0.6,1.93c-0.1,0.76-0.45,1.34-1.08,1.73
			c-0.62,0.38-1.46,0.51-2.53,0.38l-21.86-2.78c-0.92-0.11-1.64-0.31-2.14-0.57c-0.55-0.3-0.98-0.74-1.27-1.32
			c-0.3-0.58-0.41-1.17-0.33-1.78c0.06-0.49,0.2-0.89,0.41-1.21c0.21-0.32,0.48-0.61,0.79-0.83c0.32-0.23,0.71-0.44,1.2-0.66
			C501.86,321.33,502.37,321.11,502.89,320.88z"/>
		<path class="st2" d="M501.02,265.83l-1.02-7.01c-0.27-1.82-0.31-3.41-0.14-4.76c0.17-1.35,0.66-2.64,1.5-3.85
			c2.11-3.12,5.74-5.07,10.88-5.82c1.7-0.24,3.26-0.33,4.71-0.26c1.44,0.07,2.77,0.31,3.98,0.73c1.21,0.41,2.32,1,3.34,1.78
			c0.79,0.61,1.45,1.31,1.98,2.1c0.54,0.78,0.96,1.64,1.26,2.59c0.31,0.95,0.55,2.03,0.73,3.25l1.03,7.01
			c0.14,0.98,0.09,1.73-0.15,2.28c-0.24,0.54-0.64,0.93-1.19,1.16c-0.55,0.24-1.28,0.42-2.19,0.55l-20.72,3.03
			c-1.23,0.18-2.16,0.05-2.79-0.38C501.59,267.79,501.19,266.98,501.02,265.83z M505.25,263.08l19.18-2.81l-0.6-4.07
			c-0.13-0.89-0.26-1.59-0.39-2.09c-0.13-0.49-0.33-1-0.61-1.51c-0.29-0.52-0.64-0.94-1.07-1.29c-1.88-1.56-4.81-2.05-8.76-1.47
			c-2.79,0.41-4.82,1.11-6.1,2.09c-1.27,1-2.01,2.1-2.22,3.32c-0.21,1.21-0.19,2.64,0.04,4.28L505.25,263.08z"/>
	</g>
	<g>
		<path class="st2" d="M77.45,392.36c1.81-0.98,3.67-1.2,5.58-0.67c1.92,0.53,3.32,1.63,4.23,3.29c0.91,1.68,1.05,3.46,0.43,5.32
			c-0.62,1.87-1.84,3.29-3.64,4.26c-1.79,0.96-3.64,1.21-5.57,0.72c-1.92-0.49-3.33-1.57-4.25-3.26c-0.59-1.09-0.84-2.26-0.77-3.54
			c0.07-1.26,0.46-2.45,1.18-3.55C75.35,393.85,76.29,392.99,77.45,392.36z"/>
		<path class="st2" d="M46.27,351.68l10.22-2.43l-3.47-14.64l-10.22,2.42c-1.46,0.35-2.63,0.29-3.51-0.15
			c-0.88-0.45-1.43-1.17-1.67-2.17c-0.24-1.02-0.08-1.93,0.5-2.73c0.57-0.8,1.6-1.38,3.07-1.72l28.1-6.67
			c1.47-0.35,2.66-0.3,3.53,0.17c0.88,0.47,1.44,1.2,1.68,2.21c0.24,1.02,0.07,1.92-0.53,2.7c-0.59,0.79-1.62,1.35-3.08,1.7
			l-11.99,2.85l3.47,14.64l12-2.84c1.47-0.35,2.66-0.3,3.54,0.17c0.88,0.47,1.44,1.21,1.68,2.21c0.24,1.02,0.06,1.92-0.53,2.71
			c-0.6,0.78-1.62,1.35-3.08,1.7l-28.1,6.66c-1.46,0.35-2.63,0.31-3.5-0.12c-0.87-0.43-1.43-1.16-1.68-2.19
			c-0.24-1.02-0.08-1.93,0.5-2.74C43.77,352.61,44.79,352.02,46.27,351.68z"/>
		<path class="st2" d="M33.42,292.52c-0.07-3.57,0.64-6.65,2.13-9.24c1.49-2.58,3.64-4.57,6.46-5.94c2.82-1.37,6.14-2.09,9.97-2.17
			c2.83-0.06,5.41,0.26,7.75,0.93c2.33,0.67,4.36,1.71,6.09,3.12c1.72,1.41,3.07,3.15,4,5.22c0.94,2.09,1.44,4.48,1.5,7.18
			c0.05,2.69-0.36,5.11-1.24,7.26c-0.88,2.15-2.15,3.95-3.81,5.4c-1.66,1.46-3.66,2.57-6.01,3.35c-2.35,0.77-4.9,1.19-7.66,1.24
			c-2.82,0.05-5.41-0.27-7.77-0.99c-2.37-0.71-4.38-1.76-6.06-3.17c-1.68-1.41-2.98-3.14-3.89-5.19
			C33.96,297.48,33.47,295.15,33.42,292.52z M52.07,282.24c-2.68,0.06-5,0.5-6.95,1.36c-1.95,0.85-3.41,2.04-4.39,3.57
			c-0.98,1.53-1.45,3.27-1.41,5.23c0.03,1.39,0.33,2.67,0.91,3.84c0.58,1.17,1.41,2.17,2.5,3c1.08,0.83,2.46,1.49,4.13,1.94
			c1.67,0.46,3.53,0.67,5.6,0.62c2.08-0.03,3.96-0.32,5.63-0.84c1.68-0.53,3.06-1.25,4.15-2.17c1.09-0.92,1.89-1.97,2.42-3.15
			c0.53-1.18,0.78-2.46,0.75-3.86c-0.03-1.78-0.54-3.41-1.52-4.89c-0.98-1.47-2.47-2.63-4.47-3.48
			C57.43,282.58,54.97,282.18,52.07,282.24z"/>
		<path class="st2" d="M45.16,235.09l-2.39,13.52l9.23,1.63l2-11.31c0.18-1.05,0.57-1.78,1.17-2.21c0.59-0.43,1.3-0.57,2.14-0.42
			c0.84,0.14,1.46,0.52,1.86,1.14c0.4,0.61,0.51,1.43,0.32,2.46l-1.99,11.31l11.9,2.1c1.51,0.27,2.57,0.79,3.19,1.56
			c0.62,0.77,0.84,1.65,0.66,2.65c-0.18,1.02-0.69,1.78-1.55,2.29c-0.85,0.51-2.02,0.63-3.51,0.37l-27.78-4.9
			c-1.05-0.19-1.88-0.49-2.5-0.9c-0.61-0.41-1.02-0.96-1.21-1.63c-0.19-0.67-0.2-1.5-0.03-2.47l2.86-16.19
			c0.19-1.09,0.59-1.86,1.2-2.3c0.61-0.44,1.34-0.6,2.17-0.44c0.86,0.15,1.49,0.54,1.92,1.17C45.24,233.13,45.36,234,45.16,235.09z"
			/>
		<path class="st2" d="M76.86,189.86l6.56,2.52c0.87,0.33,1.53,0.68,2,1.05c0.45,0.36,0.82,0.83,1.07,1.43
			c0.25,0.59,0.45,1.29,0.58,2.12c0.38,2.38,0.47,4.56,0.29,6.55c-0.18,2-0.67,4.06-1.49,6.17c-0.95,2.47-2.21,4.56-3.81,6.28
			c-1.59,1.72-3.43,3-5.52,3.85c-2.09,0.83-4.38,1.21-6.87,1.14c-2.49-0.08-5.09-0.64-7.79-1.68c-2.67-1.03-4.95-2.33-6.88-3.93
			c-1.92-1.59-3.38-3.41-4.36-5.45c-0.98-2.04-1.49-4.25-1.51-6.64c-0.02-2.39,0.47-4.89,1.48-7.52c0.83-2.16,1.88-3.96,3.13-5.39
			c1.26-1.44,2.55-2.49,3.88-3.16c1.33-0.68,2.62-1.08,3.86-1.21c1.25-0.12,2.27-0.03,3.09,0.29c0.87,0.34,1.5,0.92,1.88,1.77
			c0.38,0.84,0.41,1.69,0.08,2.53c-0.18,0.47-0.47,0.88-0.87,1.22c-0.4,0.34-0.86,0.58-1.4,0.71c-1.65,0.29-2.92,0.58-3.82,0.87
			c-0.9,0.3-1.76,0.82-2.59,1.59c-0.83,0.77-1.52,1.88-2.08,3.34c-0.58,1.51-0.82,2.96-0.72,4.35c0.09,1.39,0.51,2.72,1.24,3.95
			c0.72,1.24,1.77,2.38,3.12,3.41c1.35,1.04,2.96,1.91,4.81,2.62c4.01,1.54,7.44,1.86,10.26,0.96c2.83-0.91,4.84-2.9,6.03-6
			c0.58-1.51,0.91-3,1-4.48c0.09-1.49,0.01-3.05-0.26-4.71l-5.55-2.13l-1.94,5.03c-0.47,1.22-1.02,2.06-1.64,2.53
			c-0.62,0.47-1.4,0.53-2.34,0.17c-0.76-0.29-1.29-0.8-1.59-1.5c-0.3-0.71-0.28-1.52,0.07-2.4l2.83-7.38
			c0.35-0.91,0.73-1.65,1.14-2.2c0.41-0.56,0.98-0.93,1.73-1.09C74.72,189.26,75.68,189.41,76.86,189.86z"/>
		<path class="st2" d="M83.89,146.36l-8.43,13.25l7.59,4.84l7.76-12.21c0.57-0.89,1.21-1.42,1.92-1.6c0.71-0.17,1.42-0.03,2.12,0.41
			c0.71,0.45,1.14,1.03,1.3,1.75c0.17,0.72-0.04,1.53-0.62,2.44l-7.76,12.2l8.8,5.6l8.72-13.71c0.59-0.92,1.26-1.47,2.02-1.64
			c0.75-0.18,1.51-0.03,2.27,0.45c0.73,0.46,1.18,1.08,1.34,1.84c0.16,0.76-0.06,1.6-0.64,2.53l-10.17,15.98
			c-0.82,1.28-1.7,2.01-2.66,2.19c-0.97,0.18-2.12-0.17-3.47-1.03l-23.25-14.78c-0.9-0.57-1.56-1.17-1.97-1.78
			c-0.41-0.61-0.58-1.27-0.49-1.96c0.08-0.71,0.38-1.47,0.91-2.3l9.88-15.53c0.6-0.94,1.26-1.49,1.99-1.66
			c0.73-0.18,1.46-0.03,2.18,0.42c0.73,0.47,1.17,1.07,1.33,1.8C84.7,144.59,84.48,145.42,83.89,146.36z"/>
		<path class="st2" d="M130.24,122.58c1.62,1.51,2.71,3.27,3.27,5.25c0.56,1.99,0.5,4.09-0.18,6.28c-0.68,2.19-1.99,4.32-3.93,6.39
			c-2.32,2.49-4.73,4.06-7.24,4.74c-1.78,0.47-3.62,0.5-5.48,0.09c-1.87-0.4-3.37-1.14-4.5-2.2c-0.66-0.61-1.02-1.35-1.09-2.22
			c-0.07-0.87,0.21-1.63,0.83-2.3c0.5-0.54,1.11-0.82,1.82-0.85c0.71-0.02,1.56,0.16,2.52,0.57c1.15,0.48,2.18,0.8,3.1,0.96
			c0.92,0.17,1.88,0.08,2.88-0.24c1-0.34,2.01-1.04,3.04-2.14c1.41-1.51,2.18-3.09,2.31-4.73c0.13-1.65-0.36-2.99-1.48-4.04
			c-0.89-0.83-1.85-1.25-2.88-1.26c-1.03-0.01-2.07,0.24-3.11,0.78c-1.04,0.54-2.36,1.32-3.95,2.36c-2.14,1.38-4.08,2.4-5.82,3.05
			c-1.74,0.65-3.46,0.85-5.17,0.6c-1.71-0.26-3.34-1.12-4.89-2.56c-1.47-1.37-2.43-2.98-2.87-4.8c-0.44-1.83-0.3-3.74,0.43-5.74
			c0.72-2.01,1.98-3.97,3.79-5.9c1.44-1.55,2.89-2.69,4.35-3.43c1.46-0.75,2.88-1.17,4.25-1.29c1.37-0.11,2.59,0.01,3.65,0.36
			c1.07,0.35,1.95,0.86,2.65,1.52c0.65,0.6,1.03,1.36,1.14,2.28c0.12,0.91-0.13,1.68-0.72,2.32c-0.55,0.59-1.12,0.88-1.71,0.9
			c-0.59,0.01-1.4-0.13-2.44-0.44c-1.44-0.49-2.74-0.68-3.9-0.56c-1.17,0.11-2.41,0.87-3.74,2.3c-1.23,1.31-1.91,2.66-2.05,4.04
			c-0.14,1.38,0.23,2.47,1.09,3.28c0.54,0.5,1.13,0.8,1.77,0.89c0.65,0.08,1.34,0.02,2.06-0.2c0.73-0.21,1.4-0.5,2.02-0.84
			c0.62-0.34,1.61-0.94,2.98-1.79c1.68-1.08,3.26-2,4.77-2.75c1.5-0.75,2.93-1.25,4.29-1.48c1.36-0.24,2.72-0.14,4.08,0.28
			C127.54,120.47,128.89,121.31,130.24,122.58z"/>
		<path class="st2" d="M165.93,94.26c0.68,0.95,1.2,2.13,1.55,3.56c0.35,1.41,0.44,2.99,0.27,4.73c-0.18,1.74-0.76,3.46-1.74,5.17
			c-0.99,1.72-2.45,3.28-4.4,4.67c-1.47,1.06-2.92,1.88-4.35,2.45c-1.42,0.57-2.85,0.89-4.29,0.97c-1.44,0.08-2.94-0.1-4.51-0.54
			c-1.41-0.4-2.79-0.99-4.14-1.77c-1.35-0.78-2.63-1.74-3.84-2.87c-1.2-1.12-2.33-2.42-3.39-3.9c-1.72-2.4-2.94-4.78-3.65-7.15
			c-0.71-2.37-0.93-4.66-0.68-6.89c0.25-2.22,0.95-4.27,2.08-6.16c1.14-1.88,2.63-3.48,4.49-4.81c2.26-1.63,4.62-2.6,7.08-2.91
			c2.46-0.3,4.67-0.09,6.62,0.65c1.96,0.74,3.39,1.73,4.29,3c0.5,0.69,0.71,1.46,0.62,2.32c-0.08,0.85-0.44,1.51-1.09,1.98
			c-0.73,0.52-1.4,0.73-2.03,0.62c-0.62-0.11-1.48-0.44-2.57-1.02c-1.79-0.95-3.46-1.43-4.98-1.44c-1.53-0.01-3.02,0.5-4.48,1.55
			c-2.33,1.67-3.51,3.95-3.53,6.82c-0.03,2.87,1.21,6.04,3.69,9.51c1.66,2.31,3.35,4.02,5.06,5.12c1.72,1.1,3.41,1.63,5.07,1.57
			c1.66-0.04,3.24-0.6,4.74-1.68c1.63-1.17,2.69-2.58,3.2-4.26c0.51-1.67,0.45-3.54-0.17-5.61c-0.32-0.96-0.48-1.81-0.48-2.56
			s0.4-1.41,1.18-1.98c0.67-0.48,1.43-0.64,2.27-0.49C164.71,93.07,165.39,93.52,165.93,94.26z"/>
		<path class="st2" d="M178.62,63.64l4.25,9.61l13.76-6.09l-4.25-9.6c-0.6-1.37-0.77-2.53-0.5-3.47c0.28-0.95,0.88-1.63,1.83-2.05
			c0.96-0.42,1.89-0.42,2.78-0.01c0.89,0.42,1.65,1.32,2.26,2.71l11.68,26.42c0.61,1.38,0.77,2.55,0.47,3.51
			c-0.3,0.95-0.92,1.63-1.87,2.06c-0.96,0.42-1.88,0.41-2.76-0.03c-0.88-0.43-1.62-1.34-2.23-2.72l-4.99-11.27l-13.76,6.08
			l4.99,11.28c0.61,1.39,0.77,2.56,0.47,3.51c-0.29,0.95-0.92,1.64-1.86,2.05c-0.96,0.43-1.88,0.42-2.76-0.02
			c-0.88-0.45-1.62-1.35-2.23-2.72l-11.68-26.41c-0.61-1.37-0.78-2.53-0.51-3.46c0.26-0.94,0.88-1.62,1.85-2.05
			c0.95-0.43,1.88-0.43,2.78-0.02C177.25,61.35,178,62.26,178.62,63.64z"/>
		<path class="st2" d="M225.84,46.69l6.08,25.99l13.76-3.23c1.1-0.25,2.01-0.17,2.73,0.26c0.72,0.43,1.18,1.07,1.38,1.93
			c0.2,0.88,0.08,1.66-0.37,2.34c-0.45,0.67-1.24,1.15-2.35,1.41l-16.39,3.83c-1.48,0.34-2.62,0.24-3.44-0.31
			c-0.81-0.54-1.4-1.6-1.76-3.15l-6.43-27.49c-0.34-1.46-0.29-2.63,0.16-3.5c0.45-0.88,1.17-1.43,2.18-1.67
			c1.03-0.24,1.94-0.07,2.74,0.5C224.92,44.19,225.49,45.22,225.84,46.69z"/>
		<path class="st2" d="M284.01,67.79l-1.86-4.52l-13.98,0.67l-1.41,4.78c-0.55,1.87-1.04,3.12-1.47,3.78
			c-0.42,0.66-1.14,1.03-2.18,1.07c-0.87,0.04-1.66-0.27-2.37-0.92c-0.7-0.64-1.07-1.4-1.12-2.27c-0.02-0.5,0.03-1.02,0.17-1.56
			c0.13-0.54,0.35-1.29,0.67-2.26l7.65-24.2c0.22-0.69,0.48-1.53,0.78-2.5c0.31-0.98,0.64-1.78,1.01-2.44
			c0.37-0.65,0.87-1.19,1.5-1.61c0.63-0.43,1.42-0.66,2.38-0.7c0.97-0.05,1.78,0.12,2.45,0.47c0.66,0.37,1.22,0.84,1.65,1.44
			c0.42,0.6,0.79,1.25,1.1,1.94c0.31,0.7,0.7,1.63,1.18,2.79l10.11,23.21c0.79,1.76,1.2,3.05,1.24,3.86
			c0.04,0.85-0.26,1.65-0.88,2.39c-0.63,0.73-1.41,1.13-2.35,1.17c-0.55,0.03-1.02-0.05-1.42-0.24c-0.4-0.18-0.74-0.45-1.03-0.8
			c-0.28-0.34-0.59-0.87-0.93-1.6C284.55,68.98,284.26,68.34,284.01,67.79z M269.74,58.28l10.27-0.5l-5.9-14.86L269.74,58.28z"/>
		<path class="st2" d="M334.39,65.24c-0.17,1.15-0.62,2.36-1.36,3.62c-0.73,1.27-1.77,2.47-3.1,3.59c-1.34,1.12-2.96,1.95-4.86,2.49
			c-1.9,0.55-4.04,0.64-6.4,0.29c-1.8-0.28-3.41-0.69-4.82-1.28c-1.41-0.58-2.67-1.35-3.75-2.29c-1.09-0.94-2.04-2.12-2.86-3.52
			c-0.73-1.28-1.3-2.66-1.73-4.16c-0.42-1.51-0.68-3.08-0.75-4.73c-0.08-1.65,0.02-3.36,0.29-5.16c0.43-2.92,1.22-5.47,2.36-7.67
			c1.14-2.19,2.57-3.99,4.31-5.41c1.73-1.43,3.66-2.41,5.78-2.97c2.12-0.56,4.31-0.67,6.58-0.33c2.75,0.41,5.12,1.36,7.1,2.86
			c1.97,1.49,3.41,3.19,4.3,5.07c0.88,1.9,1.22,3.61,0.98,5.15c-0.13,0.84-0.51,1.54-1.17,2.09c-0.65,0.56-1.37,0.78-2.16,0.66
			c-0.88-0.13-1.51-0.45-1.88-0.97c-0.37-0.51-0.75-1.35-1.13-2.52c-0.63-1.93-1.48-3.43-2.56-4.51c-1.08-1.07-2.51-1.74-4.3-2
			c-2.83-0.43-5.26,0.38-7.28,2.43c-2.02,2.04-3.35,5.18-3.98,9.39c-0.42,2.82-0.4,5.22,0.07,7.2c0.46,1.98,1.31,3.54,2.53,4.66
			c1.22,1.12,2.75,1.83,4.57,2.1c1.98,0.29,3.73,0.03,5.26-0.82c1.53-0.84,2.79-2.23,3.79-4.15c0.44-0.91,0.92-1.64,1.44-2.17
			c0.53-0.54,1.26-0.73,2.23-0.59c0.82,0.12,1.48,0.53,1.98,1.23C334.35,63.53,334.53,64.33,334.39,65.24z"/>
		<path class="st2" d="M364.62,52.03l-3.63,9.86l14.12,5.2l3.63-9.86c0.52-1.4,1.21-2.35,2.06-2.84c0.85-0.48,1.77-0.55,2.73-0.18
			c0.98,0.36,1.65,1,2,1.93c0.35,0.92,0.27,2.09-0.26,3.51l-9.99,27.1c-0.53,1.43-1.23,2.38-2.1,2.85c-0.88,0.48-1.8,0.54-2.77,0.18
			c-0.98-0.36-1.64-1.01-1.96-1.94c-0.33-0.92-0.23-2.09,0.29-3.5l4.26-11.57l-14.12-5.2l-4.26,11.56c-0.52,1.43-1.22,2.38-2.1,2.85
			c-0.88,0.48-1.8,0.54-2.77,0.18c-0.98-0.36-1.64-1.01-1.96-1.93c-0.33-0.93-0.23-2.11,0.29-3.51l9.99-27.1
			c0.52-1.4,1.2-2.35,2.04-2.83c0.84-0.5,1.76-0.55,2.76-0.19c0.98,0.36,1.65,1.01,2,1.93C365.23,49.44,365.15,50.62,364.62,52.03z"
			/>
		<path class="st2" d="M422.76,82.88l-6.51-3.94l-13.78,22.78c-0.8,1.31-1.66,2.12-2.59,2.43c-0.93,0.29-1.83,0.19-2.71-0.34
			c-0.88-0.54-1.41-1.29-1.58-2.27c-0.17-0.98,0.14-2.12,0.93-3.42l13.78-22.78l-6.51-3.94c-1.02-0.62-1.63-1.31-1.84-2.09
			c-0.21-0.78-0.07-1.57,0.4-2.35c0.49-0.81,1.14-1.3,1.94-1.45c0.8-0.16,1.69,0.06,2.66,0.65l18.96,11.48
			c1.03,0.62,1.65,1.33,1.86,2.11c0.21,0.79,0.08,1.58-0.4,2.36c-0.47,0.78-1.11,1.26-1.91,1.44
			C424.68,83.71,423.77,83.49,422.76,82.88z"/>
		<path class="st2" d="M457.04,110.01L445.28,99.6l-5.97,6.74l10.83,9.59c0.8,0.7,1.22,1.42,1.28,2.14
			c0.06,0.73-0.19,1.41-0.74,2.03c-0.55,0.63-1.2,0.97-1.93,1.02c-0.73,0.05-1.51-0.28-2.32-1l-10.83-9.58l-6.91,7.81l12.16,10.76
			c0.82,0.72,1.26,1.48,1.32,2.26c0.06,0.77-0.21,1.49-0.81,2.17c-0.58,0.65-1.25,0.99-2.03,1.03c-0.78,0.03-1.57-0.31-2.39-1.04
			l-14.19-12.55c-1.14-1.01-1.72-2-1.74-2.98c-0.03-0.98,0.5-2.07,1.56-3.26l18.26-20.63c0.71-0.8,1.4-1.35,2.07-1.66
			c0.67-0.31,1.34-0.37,2.02-0.18c0.67,0.19,1.39,0.61,2.13,1.26l13.78,12.2c0.83,0.73,1.28,1.48,1.34,2.23
			c0.05,0.75-0.2,1.45-0.77,2.09c-0.57,0.65-1.24,0.99-1.99,1.02C458.66,111.1,457.87,110.74,457.04,110.01z"/>
		<path class="st2" d="M486.23,144.41l-4.69-5.99l-20.96,16.42c-1.21,0.95-2.3,1.4-3.28,1.35c-0.98-0.04-1.78-0.47-2.41-1.28
			c-0.63-0.8-0.86-1.7-0.67-2.67c0.19-0.98,0.88-1.93,2.08-2.87l20.96-16.43l-4.69-5.98c-0.73-0.93-1.06-1.81-0.98-2.61
			c0.08-0.81,0.48-1.48,1.2-2.05c0.75-0.58,1.52-0.81,2.33-0.67c0.8,0.13,1.56,0.66,2.26,1.55l13.67,17.44
			c0.74,0.95,1.07,1.83,0.99,2.64c-0.08,0.81-0.49,1.5-1.21,2.07c-0.72,0.56-1.49,0.78-2.3,0.66
			C487.74,145.87,486.96,145.35,486.23,144.41z"/>
		<path class="st2" d="M502.08,199.2c-1.87,0.82-3.75,0.9-5.62,0.22c-1.87-0.68-3.19-1.88-3.95-3.62c-0.77-1.74-0.78-3.52-0.01-5.33
			c0.77-1.81,2.09-3.13,3.96-3.96c1.86-0.82,3.72-0.92,5.6-0.28c1.88,0.64,3.2,1.83,3.98,3.59c0.5,1.13,0.66,2.32,0.49,3.58
			c-0.17,1.26-0.66,2.4-1.45,3.44C504.29,197.87,503.28,198.66,502.08,199.2z"/>
	</g>
	<path d="M117.27,374.31c8.37,16.86,18.96,31.89,31.21,44.97c3.91-6.99,8.05-13.51,14.16-18.71c7.81-6.65,12.6-15.07,15.4-24.69
		c1.92-6.61,3.38-13.34,5.21-19.98c1.3-4.72,2.43-9.56,4.45-13.99c5.1-11.18,12.57-14.64,24.78-12.04
		c5.46,1.17,10.9,2.45,16.34,3.73c10.35,2.44,20.61,3.64,31.05-0.12c3.66-1.32,7.7-1.46,11.37,1c4,2.68,8.39,2.16,12.12-0.29
		c4.59-3.02,9.4-6.16,12.91-10.28c5.83-6.83,8.01-13.6-1.23-22.16c-10.31-9.56-20.08-19.7-29.9-29.76
		c-2.71-2.78-5.84-5.86-6.91-9.37c-0.24-0.8-0.55-1.55-0.85-2.31c2.95-0.54,6.07-0.53,9.08,0.6c5.61,2.11,7.47,6.78,10.9,10.93
		c8.66,10.47,26.4,16.46,39.02,12.4c12.55-4.03,20.62-18.19,22.56-33.14c1.17,2.61,2.22,5.28,3.05,8.05
		c0.64,2.15,2.32,3.54,4.22,4.21c3.68,1.3,4.99,4.13,5.35,7.52c0.26,2.4,0.13,4.89-0.17,7.3c-0.37,2.98-1.1,5.92-1.65,8.88
		c-0.98,5.24-1.99,10.48-2.89,15.74c-0.35,2.06-1.39,3.41-3.13,4.53c-7.05,4.54-14.14,9.01-21,13.83
		c-8.09,5.68-16.33,11.21-23.2,18.43c-1.3,1.37-2.38,3-3.3,4.65c-2.34,4.21-1.83,8.53,0.22,12.6c2.64,5.24,5.65,10.3,8.38,15.51
		c2.41,4.59,4.87,9.19,6.95,13.93c4.33,9.88,6.88,20.45,11.64,30.2c2.68,5.51,2.36,5.74,8.36,5.19c1.87-0.17,2.83,0.41,3.34,2.15
		c0.48,1.62,0.72,3.04-0.45,4.62c-1.22,1.63-1.9,3.65-3.02,5.37c-2.99,4.59-6.01,9.16-9.17,13.64c-1.65,2.34-3.86,4.31-5.37,6.73
		c-1.16,1.87-2.59,3.08-4.49,4.01c-7.04,3.44-14.06,6.94-21.09,10.4c-6.64,3.28-13.28,6.54-19.93,9.81
		c33.28,2.67,67.73-3.38,99.86-19.33c73.21-36.34,112.79-113.3,104.79-189.72c-0.95,0.69-1.91,1.37-2.84,2.09
		c-3.19,2.48-6.74,4.67-9.4,7.63c-1.86,2.06-3.56,3.57-6.27,4.15c-3.11,0.67-5.88,2.01-8.18,4.41c-1.69,1.76-3.77,3.19-5.83,4.54
		c-2.35,1.54-4.87,2.83-7.41,4.28c-0.42-0.84-0.74-1.18-0.74-1.54c-0.15-10.85-5.13-19.92-10.46-28.88
		c-0.83-1.39-2.27-3.31-1.85-4.37c1.26-3.18-0.24-5.79-0.98-8.57c1.79-2.2,3.06-4.62,2.37-7.27c-0.52-1.96-0.62-3.71,0.01-5.57
		c0.7-2.06,0.06-3.55-1.54-5.07c-6.36-6-12.59-12.14-18.85-18.25c-0.88-0.86-1.74-1.77-2.4-2.79c-4.45-6.93-10.95-11.71-17.27-16.75
		c-6.52-5.21-13.96-7.28-22.05-7.82c-1.23-0.08-2.47-0.05-3.7-0.15c-4.37-0.36-8.77-0.59-13.1-1.21c-2.35-0.34-4.46-0.56-6.82,0.26
		c-2.5,0.87-5.2,0.9-6.48-2.07c0.15-1.56,0.29-3.14-0.09-4.58c-0.56-2.12-1.15-4.12-0.79-6.41c0.42-2.64-0.37-5.12-1.98-7.33
		c-4.35-5.99-10.23-10.2-16.41-14.05c-0.68-0.42-1.51-0.65-2.3-0.85c-10.88-2.78-18.02,0.75-24.51,10.29
		c-1.06,1.57-2.24,3.06-3.45,4.52c-1.87,2.24-3.35,4.57-4.02,7.51c-1.14,5.02,0.21,9.48,2.45,13.81c0.87,1.67,2.24,2.63,4.18,2.94
		c5.29,0.84,6.94,2.41,7,8.09c0.01,0.52,0.12,1.04,0.21,1.77c1.39,0.14,2.67,0.27,4.1,0.41c-0.15,2.7,1.39,4.06,3.37,5.27
		c1.34,0.82,2.52,1.99,3.58,3.17c1.84,2.05,3.37,2.6,5.77,1.26c2.02-1.12,3.84-2.6,6.02-4.12c1.06,0.45,2.27,1.05,3.54,1.48
		c2.39,0.81,3.52,2.25,3.22,4.91c-0.22,1.97,0.02,3.84,0.54,5.63c-5.42,12.99-10.84,25.97-16.27,38.96
		c-10.8-1.61-23.44-4.28-37.21-8.76c-10.7-3.48-20.2-7.44-28.49-11.43c-3.41-3.29-7.03-6.55-7.82-12.01
		c5.47-3.89,11.01-7.43,16.07-11.55c6.35-5.17,7.99-9.53,7.11-16.7c-7.63,9.9-17.71,12.23-27.39,10.68
		c-4.22,2.7-7.23,4.71-10.33,6.58c-2.75,1.65-6.17,2.59-8.29,4.81c-7.78,8.14-17.26,12.75-28.07,15.13
		c-2.23,0.49-4.31,1.62-6.5,2.33c-15.63,5.05-31.1,10.63-47.59,12.45c-8.95,0.98-17.89,2.11-26.82,3.24
		C93.44,293.34,98.03,335.55,117.27,374.31z M367.28,352.86c-1.34,1.02-1.89,3.61-2.05,5.54c-0.42,4.9-0.65,9.84-0.49,14.74
		c0.12,3.63,0.51,7.27,2.74,10.53c1.75,2.57,2.6,5.63,3.07,8.81c0.64,4.31,1.63,8.55,1.54,12.97c-0.03,1.43,0.76,2.88,1.17,4.32
		c0.47,1.65,0.75,3.44-0.88,4.49c-1.95,1.25-3.56,3.79-6.51,2.36c-1.47-0.71-3-1.33-4.39-2.18c-1.45-0.89-2.09-2.18-2.26-4.05
		c-0.46-4.89-1.32-9.73-2.03-14.59c-0.43-2.98-1.07-5.93-1.3-8.92c-0.92-12.28-2.8-24.39-6.15-36.55c9.1-3.17,16.92-8.5,26.37-10.95
		C373.62,344.54,371.78,349.43,367.28,352.86z"/>
	<path d="M259.22,189.39c1.66-0.53,71.38-18.42,94.55-30.38l-26.46,1.73l-13.71-21.55l-34.09,10.95l-0.47,22.72L259.22,189.39z"/>
</g>
</svg>
